<?xml version="1.0" encoding="UTF-8"?>
<!DOCTYPE svg PUBLIC "-//W3C//DTD SVG 1.1//EN" "http://www.w3.org/Graphics/SVG/1.1/DTD/svg11.dtd">
<svg xmlns="http://www.w3.org/2000/svg" version="1.1" width="616px" height="149px" style="shape-rendering:geometricPrecision; text-rendering:geometricPrecision; image-rendering:optimizeQuality; fill-rule:evenodd; clip-rule:evenodd" xmlns:xlink="http://www.w3.org/1999/xlink">
<g><path style="opacity:0.93" fill="#fefffe" d="M 62.5,21.5 C 63.6569,29.9901 63.8236,38.6567 63,47.5C 49.4174,56.3763 35.5841,64.8763 21.5,73C 34.7635,81.8814 48.2635,90.3814 62,98.5C 64.5123,94.6622 66.8456,90.6622 69,86.5C 77.2089,91.876 86.0422,93.376 95.5,91C 96.9348,88.7328 96.6015,86.7328 94.5,85C 85.3598,83.2193 76.6932,80.2193 68.5,76C 61.5849,66.8033 62.2515,58.1366 70.5,50C 84.2716,42.6316 97.9382,42.7983 111.5,50.5C 109.902,54.1264 108.402,57.7931 107,61.5C 106.439,62.0219 105.772,62.3552 105,62.5C 97.7146,58.4108 90.2146,57.7442 82.5,60.5C 81.3691,62.0745 81.2025,63.7412 82,65.5C 90.6463,67.7892 99.1463,70.6225 107.5,74C 115.635,81.5657 116.301,89.7323 109.5,98.5C 101.701,105.03 92.7012,107.53 82.5,106C 75.9632,105.325 69.7966,103.492 64,100.5C 63.6667,108.833 63.3333,117.167 63,125.5C 43.5856,112.542 24.0856,99.7091 4.5,87C 3.18342,77.8933 3.18342,68.7266 4.5,59.5C 23.8984,46.8095 43.2318,34.1429 62.5,21.5 Z"/></g>
<g><path style="opacity:0.918" fill="#fefffe" d="M 230.5,48.5 C 235.511,48.3341 240.511,48.5007 245.5,49C 246.46,52.73 246.793,56.5633 246.5,60.5C 249.85,60.335 253.183,60.5017 256.5,61C 257.833,65 257.833,69 256.5,73C 253.183,73.4983 249.85,73.665 246.5,73.5C 246.334,79.1764 246.501,84.8431 247,90.5C 247.5,91 248,91.5 248.5,92C 251.277,92.0511 253.943,92.2178 256.5,92.5C 257.74,96.0558 259.073,99.5558 260.5,103C 254.388,105.414 248.054,106.081 241.5,105C 234.781,102.948 230.948,98.4484 230,91.5C 229.501,85.5092 229.334,79.5092 229.5,73.5C 227.5,73.5 225.5,73.5 223.5,73.5C 223.5,69.1667 223.5,64.8333 223.5,60.5C 225.5,60.5 227.5,60.5 229.5,60.5C 229.237,56.3998 229.57,52.3998 230.5,48.5 Z"/></g>
<g><path style="opacity:0.848" fill="#fefffe" d="M 555.5,51.5 C 563.617,52.566 565.284,56.3993 560.5,63C 552.813,64.6477 549.979,61.8144 552,54.5C 553.145,53.3636 554.312,52.3636 555.5,51.5 Z"/></g>
<g><path style="opacity:0.872" fill="#fefffe" d="M 531.5,53.5 C 534.777,53.2161 537.943,53.5495 541,54.5C 541.667,72.5 541.667,90.5 541,108.5C 538.263,109.61 535.429,109.777 532.5,109C 531.809,107.933 531.309,106.766 531,105.5C 519.154,112.321 509.154,110.321 501,99.5C 496.83,89.6906 498.33,80.8572 505.5,73C 513.622,67.2913 521.789,67.1246 530,72.5C 530.207,66.0865 530.707,59.7531 531.5,53.5 Z M 516.5,77.5 C 528.114,77.3644 532.614,83.0311 530,94.5C 526.723,100.109 521.89,101.942 515.5,100C 513,98.8333 511.167,97 510,94.5C 507.657,86.825 509.824,81.1584 516.5,77.5 Z"/></g>
<g><path style="opacity:0.889" fill="#fefffe" d="M 387.5,56.5 C 395.482,55.7822 403.149,56.9489 410.5,60C 411.059,60.7247 411.392,61.5581 411.5,62.5C 410.67,64.8284 409.837,67.1617 409,69.5C 402.626,65.8411 395.793,64.6745 388.5,66C 384.075,68.5488 383.408,71.8821 386.5,76C 393.238,77.748 399.905,79.748 406.5,82C 415.028,87.6361 416.528,94.8028 411,103.5C 403.443,109.153 394.943,110.986 385.5,109C 380.516,108.34 376.183,106.34 372.5,103C 373.437,100.293 374.77,97.7935 376.5,95.5C 383.506,100.109 391.173,101.609 399.5,100C 404.395,97.1765 404.729,93.8432 400.5,90C 393.73,88.3081 387.064,86.3081 380.5,84C 372.04,77.0905 371.373,69.4238 378.5,61C 381.437,59.1991 384.437,57.6991 387.5,56.5 Z"/></g>
<g><path style="opacity:0.926" fill="#fefffe" d="M 113.5,58.5 C 118.844,58.334 124.177,58.5006 129.5,59C 133.462,67.7598 137.296,76.5931 141,85.5C 144.171,76.3294 148.005,67.496 152.5,59C 157.681,58.0609 162.681,58.3942 167.5,60C 159.871,77.4268 152.371,94.9268 145,112.5C 139.157,120.451 131.323,123.284 121.5,121C 118.412,120.421 115.745,119.087 113.5,117C 115.54,113.086 117.707,109.252 120,105.5C 124.426,109.533 128.593,109.367 132.5,105C 125.478,89.7624 119.144,74.2624 113.5,58.5 Z"/></g>
<g><path style="opacity:0.904" fill="#fefffe" d="M 171.5,58.5 C 176.511,58.3341 181.511,58.5007 186.5,59C 187.191,60.0674 187.691,61.2341 188,62.5C 196.354,57.3446 204.854,57.178 213.5,62C 217.607,66.3137 219.774,71.4803 220,77.5C 220.667,86.5 220.667,95.5 220,104.5C 214.333,105.833 208.667,105.833 203,104.5C 202.667,94.8333 202.333,85.1667 202,75.5C 197.375,71.3541 193.041,71.6875 189,76.5C 187.78,85.7736 187.113,95.107 187,104.5C 181.918,105.637 176.751,105.804 171.5,105C 170.174,89.5 170.174,74 171.5,58.5 Z"/></g>
<g><path style="opacity:0.923" fill="#fefffe" d="M 276.5,58.5 C 284.832,57.684 292.832,58.8507 300.5,62C 304.949,65.3969 307.449,69.8969 308,75.5C 308.818,85.4107 308.651,95.2441 307.5,105C 302.833,105.667 298.167,105.667 293.5,105C 292.809,103.933 292.309,102.766 292,101.5C 284.511,106.22 276.678,106.72 268.5,103C 260.951,95.9593 260.618,88.626 267.5,81C 269.957,79.4379 272.624,78.4379 275.5,78C 280.864,77.8295 286.198,77.3295 291.5,76.5C 288.068,71.6954 283.401,70.1954 277.5,72C 274.804,72.7648 272.304,73.9315 270,75.5C 268.167,71.8333 266.333,68.1667 264.5,64.5C 268.069,61.5389 272.069,59.5389 276.5,58.5 Z M 282.5,86.5 C 285.5,86.5 288.5,86.5 291.5,86.5C 291.047,93.4087 287.38,95.9087 280.5,94C 277.781,90.6515 278.448,88.1515 282.5,86.5 Z"/></g>
<g><path style="opacity:0.904" fill="#fefffe" d="M 313.5,58.5 C 319.176,58.3339 324.843,58.5006 330.5,59C 333.358,62.3579 336.025,65.8579 338.5,69.5C 341.145,65.7207 344.145,62.2207 347.5,59C 352.864,58.1705 358.198,58.3372 363.5,59.5C 358.553,67.1134 353.22,74.4467 347.5,81.5C 353.288,88.9103 358.955,96.4103 364.5,104C 358.674,105.617 352.674,105.95 346.5,105C 343.281,101.448 340.448,97.6149 338,93.5C 335.533,97.6004 332.699,101.434 329.5,105C 323.833,105.667 318.167,105.667 312.5,105C 312.167,104.667 311.833,104.333 311.5,104C 317.357,96.9771 323.024,89.8105 328.5,82.5C 323.361,74.861 318.027,67.361 312.5,60C 313.056,59.6174 313.389,59.1174 313.5,58.5 Z"/></g>
<g><path style="opacity:0.895" fill="#fefffe" d="M 423.5,60.5 C 426.833,60.5 430.167,60.5 433.5,60.5C 433.5,63.5 433.5,66.5 433.5,69.5C 436.833,69.5 440.167,69.5 443.5,69.5C 443.5,72.1667 443.5,74.8333 443.5,77.5C 440.167,77.5 436.833,77.5 433.5,77.5C 433.334,84.5079 433.5,91.5079 434,98.5C 436.725,100.758 439.725,101.091 443,99.5C 448.157,106.417 446.157,109.75 437,109.5C 430.709,109.861 426.375,107.194 424,101.5C 423.5,93.5069 423.334,85.5069 423.5,77.5C 421.167,77.5 418.833,77.5 416.5,77.5C 416.5,74.8333 416.5,72.1667 416.5,69.5C 418.833,69.5 421.167,69.5 423.5,69.5C 423.5,66.5 423.5,63.5 423.5,60.5 Z"/></g>
<g><path style="opacity:0.894" fill="#fefffe" d="M 586.5,68.5 C 603.352,67.8563 611.852,75.8563 612,92.5C 608.073,105.72 599.24,111.22 585.5,109C 570.357,102.878 566.19,92.3778 573,77.5C 576.517,72.8383 581.017,69.8383 586.5,68.5 Z M 587.5,77.5 C 599.114,77.3644 603.614,83.0311 601,94.5C 597.723,100.109 592.89,101.942 586.5,100C 584,98.8333 582.167,97 581,94.5C 580.333,90.8333 580.333,87.1667 581,83.5C 582.494,80.6865 584.66,78.6865 587.5,77.5 Z"/></g>
<g><path style="opacity:0.9" fill="#fefffe" d="M 451.5,69.5 C 454.833,69.5 458.167,69.5 461.5,69.5C 461.334,77.5069 461.5,85.5069 462,93.5C 464.616,100.571 469.449,102.404 476.5,99C 478.041,97.4207 479.208,95.5873 480,93.5C 480.5,85.5069 480.666,77.5069 480.5,69.5C 483.833,69.5 487.167,69.5 490.5,69.5C 490.667,82.5043 490.5,95.5043 490,108.5C 487.263,109.61 484.429,109.777 481.5,109C 480.809,107.933 480.309,106.766 480,105.5C 473.188,110.196 466.021,110.696 458.5,107C 454.675,104.512 452.508,101.012 452,96.5C 451.5,87.5062 451.334,78.5062 451.5,69.5 Z"/></g>
<g><path style="opacity:0.814" fill="#fefffe" d="M 552.5,69.5 C 555.777,69.2161 558.943,69.5495 562,70.5C 562.822,83.4088 562.655,96.2421 561.5,109C 558.24,109.784 555.073,109.617 552,108.5C 551.187,95.4247 551.354,82.4247 552.5,69.5 Z"/></g>
</svg>
