<?xml version="1.0" encoding="UTF-8"?>
<!DOCTYPE svg PUBLIC "-//W3C//DTD SVG 1.1//EN" "http://www.w3.org/Graphics/SVG/1.1/DTD/svg11.dtd">
<svg xmlns="http://www.w3.org/2000/svg" version="1.1" width="550px" height="113px" style="shape-rendering:geometricPrecision; text-rendering:geometricPrecision; image-rendering:optimizeQuality; fill-rule:evenodd; clip-rule:evenodd" xmlns:xlink="http://www.w3.org/1999/xlink">
<g><path style="opacity:0.935" fill="#fc9398" d="M 52.5,12.5 C 52.4173,20.6778 52.084,28.6778 51.5,36.5C 50.5,37.1667 49.5,37.8333 48.5,38.5C 48.8758,31.3572 49.5425,23.6906 50.5,15.5C 50.3764,14.8933 50.0431,14.56 49.5,14.5C 49.9731,13.0937 50.9731,12.427 52.5,12.5 Z"/></g>
<g><path style="opacity:0.96" fill="#fb969b" d="M 49.5,14.5 C 50.0431,14.56 50.3764,14.8933 50.5,15.5C 49.5425,23.6906 48.8758,31.3572 48.5,38.5C 48.1667,38.5 47.8333,38.5 47.5,38.5C 47.334,31.1637 47.334,23.4971 47.5,15.5C 47.8417,14.6618 48.5084,14.3284 49.5,14.5 Z"/></g>
<g><path style="opacity:0.938" fill="#fa999d" d="M 47.5,15.5 C 47.334,23.4971 47.334,31.1637 47.5,38.5C 45.2063,40.653 42.5396,42.3197 39.5,43.5C 39.906,42.0855 39.2393,40.9188 37.5,40C 39.1548,37.7533 39.4881,35.4199 38.5,33C 39.2555,28.5385 39.9222,24.0385 40.5,19.5C 42.6979,17.9019 45.0313,16.5686 47.5,15.5 Z"/></g>
<g><path style="opacity:0.366" fill="#fd8f94" d="M 51.5,36.5 C 52.084,28.6778 52.4173,20.6778 52.5,12.5C 53.2022,15.4088 53.5355,19.0755 53.5,23.5C 53.3333,27.5 53.1667,31.5 53,35.5C 52.6174,36.056 52.1174,36.3893 51.5,36.5 Z"/></g>
<g><path style="opacity:0.933" fill="#f9969b" d="M 40.5,19.5 C 39.9222,24.0385 39.2555,28.5385 38.5,33C 39.4881,35.4199 39.1548,37.7533 37.5,40C 39.2393,40.9188 39.906,42.0855 39.5,43.5C 38.0351,44.7368 36.3684,45.7368 34.5,46.5C 34.7472,41.4706 35.4139,36.3039 36.5,31C 35.9817,28.7585 35.6484,26.2585 35.5,23.5C 36.9448,21.9373 38.6115,20.604 40.5,19.5 Z"/></g>
<g><path style="opacity:0.945" fill="#f79397" d="M 35.5,23.5 C 35.6484,26.2585 35.9817,28.7585 36.5,31C 35.4139,36.3039 34.7472,41.4706 34.5,46.5C 33.7095,47.4013 32.7095,48.0679 31.5,48.5C 31.6613,45.1897 31.6613,42.1897 31.5,39.5C 31.5,34.8333 31.5,30.1667 31.5,25.5C 32.6049,24.3995 33.9382,23.7329 35.5,23.5 Z"/></g>
<g><path style="opacity:0.938" fill="#f68d91" d="M 31.5,25.5 C 31.5,30.1667 31.5,34.8333 31.5,39.5C 30.5206,42.6248 30.1872,45.9581 30.5,49.5C 28.0616,51.2672 25.395,52.6006 22.5,53.5C 22.5,51.8333 22.5,50.1667 22.5,48.5C 23.4861,44.03 23.8195,39.3633 23.5,34.5C 23.8333,33.1667 24.1667,31.8333 24.5,30.5C 26.6195,28.6002 28.9528,26.9336 31.5,25.5 Z"/></g>
<g><path style="opacity:0.938" fill="#f79397" d="M 24.5,30.5 C 24.1667,31.8333 23.8333,33.1667 23.5,34.5C 22.8087,38.8993 22.142,43.3993 21.5,48C 21.7284,48.3988 22.0618,48.5654 22.5,48.5C 22.5,50.1667 22.5,51.8333 22.5,53.5C 21.5637,54.9744 20.2303,55.9744 18.5,56.5C 19.0393,48.6951 19.7059,40.6951 20.5,32.5C 21.6049,31.3995 22.9382,30.7329 24.5,30.5 Z"/></g>
<g><path style="opacity:0.919" fill="#0c1327" d="M 53.5,82.5 C 54.9945,78.1776 56.9945,74.1776 59.5,70.5C 66.327,74.5406 73.6604,76.0406 81.5,75C 84.9931,73.5219 85.3264,71.5219 82.5,69C 76.5369,67.2072 70.5369,65.5406 64.5,64C 53.8289,58.2255 51.6623,50.0588 58,39.5C 66.0419,32.951 75.2085,30.7843 85.5,33C 89.3934,33.4645 93.0601,34.6312 96.5,36.5C 97.5827,37.365 97.7494,38.365 97,39.5C 96.075,42.9706 94.4084,45.9706 92,48.5C 85.7807,45.687 79.2807,44.8536 72.5,46C 69.967,48.084 69.967,50.084 72.5,52C 78.5369,53.5406 84.5369,55.2072 90.5,57C 101.076,63.1395 102.909,71.3062 96,81.5C 82.1389,90.3206 67.9722,90.6539 53.5,82.5 Z"/></g>
<g><path style="opacity:1" fill="#f79094" d="M 23.5,34.5 C 23.8195,39.3633 23.4861,44.03 22.5,48.5C 22.0618,48.5654 21.7284,48.3988 21.5,48C 22.142,43.3993 22.8087,38.8993 23.5,34.5 Z"/></g>
<g><path style="opacity:0.959" fill="#fa999d" d="M 16.5,35.5 C 15.5925,44.4072 15.5925,53.4072 16.5,62.5C 15.8333,63.5 15.1667,64.5 14.5,65.5C 15.4749,70.3189 15.4749,75.3189 14.5,80.5C 11.8646,79.1891 9.53131,77.5224 7.5,75.5C 7.33421,65.3787 8.00087,54.8787 9.5,44C 8.66337,42.9887 8.33003,41.8221 8.5,40.5C 11.1667,38.8333 13.8333,37.1667 16.5,35.5 Z"/></g>
<g><path style="opacity:0.935" fill="#0c1327" d="M 204.5,36.5 C 209.5,36.5 214.5,36.5 219.5,36.5C 219.5,39.8333 219.5,43.1667 219.5,46.5C 222.5,46.5 225.5,46.5 228.5,46.5C 228.5,50.5 228.5,54.5 228.5,58.5C 225.5,58.5 222.5,58.5 219.5,58.5C 219.334,63.5111 219.501,68.5111 220,73.5C 222.209,75.7064 224.709,76.0398 227.5,74.5C 228.928,77.6162 230.262,80.7829 231.5,84C 231.355,84.772 231.022,85.4387 230.5,86C 224.5,88 218.5,88 212.5,86C 209.829,84.75 207.663,82.9167 206,80.5C 204.609,73.2542 204.109,65.9209 204.5,58.5C 202.5,58.5 200.5,58.5 198.5,58.5C 198.5,54.5 198.5,50.5 198.5,46.5C 200.5,46.5 202.5,46.5 204.5,46.5C 204.5,43.1667 204.5,39.8333 204.5,36.5 Z"/></g>
<g><path style="opacity:0.85" fill="#0c1327" d="M 496.5,38.5 C 504.993,37.4707 507.327,40.6373 503.5,48C 496.691,50.1959 493.857,47.6959 495,40.5C 495.717,39.9558 496.217,39.2891 496.5,38.5 Z"/></g>
<g><path style="opacity:0.888" fill="#f79094" d="M 31.5,39.5 C 31.6613,42.1897 31.6613,45.1897 31.5,48.5C 31.5,49.1667 31.1667,49.5 30.5,49.5C 30.1872,45.9581 30.5206,42.6248 31.5,39.5 Z"/></g>
<g><path style="opacity:0.961" fill="#fb979b" d="M 8.5,40.5 C 8.33003,41.8221 8.66337,42.9887 9.5,44C 8.00087,54.8787 7.33421,65.3787 7.5,75.5C 6.50838,75.6716 5.84171,75.3382 5.5,74.5C 6.46014,64.256 6.79347,53.5893 6.5,42.5C 6.83333,41.5 7.5,40.8333 8.5,40.5 Z"/></g>
<g><path style="opacity:0.903" fill="#0c1327" d="M 476.5,40.5 C 479.5,40.5 482.5,40.5 485.5,40.5C 485.5,57.1667 485.5,73.8333 485.5,90.5C 482.813,90.6641 480.146,90.4974 477.5,90C 476.953,89.0754 476.287,88.2421 475.5,87.5C 462.89,93.5747 453.723,90.2414 448,77.5C 445.624,63.3905 451.457,55.3905 465.5,53.5C 469.335,53.3901 472.835,54.3901 476,56.5C 476.499,51.1771 476.666,45.8437 476.5,40.5 Z M 463.5,61.5 C 475.793,62.1538 479.293,68.1538 474,79.5C 464.899,84.8695 459.065,82.3695 456.5,72C 457.076,67.2691 459.41,63.7691 463.5,61.5 Z"/></g>
<g><path style="opacity:0.95" fill="#fc9297" d="M 6.5,42.5 C 6.79347,53.5893 6.46014,64.256 5.5,74.5C 4.29049,74.0679 3.29049,73.4013 2.5,72.5C 2.99951,63.174 3.33284,53.8406 3.5,44.5C 3.97306,43.0937 4.97306,42.427 6.5,42.5 Z"/></g>
<g><path style="opacity:0.882" fill="#0c1327" d="M 345.5,42.5 C 350.511,42.3341 355.511,42.5007 360.5,43C 363.874,43.521 366.874,44.8543 369.5,47C 368.692,49.0876 367.692,51.0876 366.5,53C 360.722,51.0665 354.722,50.3999 348.5,51C 343.443,53.355 342.776,56.355 346.5,60C 352.957,61.6242 359.29,63.6242 365.5,66C 373.537,73.5567 373.204,80.8901 364.5,88C 354.213,91.7586 344.213,91.0919 334.5,86C 333.639,82.8336 334.472,80.0003 337,77.5C 344.737,83.0299 352.737,83.6965 361,79.5C 361.743,77.5594 361.576,75.7261 360.5,74C 354.225,71.8473 347.892,69.8473 341.5,68C 334.451,63.5131 332.617,57.3465 336,49.5C 338.529,46.1151 341.696,43.7818 345.5,42.5 Z"/></g>
<g><path style="opacity:0.947" fill="#fd8c91" d="M 3.5,44.5 C 3.33284,53.8406 2.99951,63.174 2.5,72.5C 1.60895,71.8902 0.608953,71.5569 -0.5,71.5C -0.5,62.8333 -0.5,54.1667 -0.5,45.5C 0.833333,45.1667 2.16667,44.8333 3.5,44.5 Z"/></g>
<g><path style="opacity:0.92" fill="#0c1327" d="M 173.5,44.5 C 183.689,43.0043 190.522,47.0043 194,56.5C 195.462,66.4597 195.795,76.4597 195,86.5C 190,87.8333 185,87.8333 180,86.5C 179.667,78.1667 179.333,69.8333 179,61.5C 175.136,56.2806 171.136,56.2806 167,61.5C 165.796,69.7723 165.129,78.1056 165,86.5C 160.333,87.8333 155.667,87.8333 151,86.5C 150.5,72.8374 150.333,59.1707 150.5,45.5C 155.5,45.5 160.5,45.5 165.5,45.5C 165.351,46.552 165.517,47.552 166,48.5C 168.514,46.9958 171.014,45.6624 173.5,44.5 Z"/></g>
<g><path style="opacity:0.92" fill="#0c1327" d="M 248.5,44.5 C 258.15,42.9476 266.317,45.6142 273,52.5C 273.862,54.087 274.529,55.7536 275,57.5C 275.818,67.4107 275.651,77.2441 274.5,87C 270.5,87.6667 266.5,87.6667 262.5,87C 261.809,85.9326 261.309,84.7659 261,83.5C 254.219,88.2665 247.052,88.7665 239.5,85C 233.739,79.2433 233.073,72.9099 237.5,66C 244.727,62.5156 252.394,60.849 260.5,61C 258.904,57.6996 256.237,56.1996 252.5,56.5C 248.671,56.8871 245.004,57.8871 241.5,59.5C 238.13,56.4525 236.796,52.7859 237.5,48.5C 241.276,47.1334 244.943,45.8001 248.5,44.5 Z M 251.5,70.5 C 254.5,70.5 257.5,70.5 260.5,70.5C 259.828,77.214 256.328,79.214 250,76.5C 249.257,74.1261 249.757,72.1261 251.5,70.5 Z"/></g>
<g><path style="opacity:0.93" fill="#0c1327" d="M 98.5,45.5 C 103.511,45.3341 108.511,45.5007 113.5,46C 116.796,53.4272 119.962,60.9272 123,68.5C 126.45,61.3244 129.617,53.991 132.5,46.5C 137.467,45.3377 142.467,45.1711 147.5,46C 140.871,61.4274 134.371,76.9274 128,92.5C 119.881,103.32 110.048,105.153 98.5,98C 100.461,94.5788 102.294,91.0788 104,87.5C 108.261,90.4814 112.095,90.1481 115.5,86.5C 109.545,72.9264 103.878,59.2598 98.5,45.5 Z"/></g>
<g><path style="opacity:0.909" fill="#0c1327" d="M 279.5,46.5 C 284.985,45.3483 290.651,45.1816 296.5,46C 299.037,48.9063 301.204,52.073 303,55.5C 305.167,52.5 307.333,49.5 309.5,46.5C 315.137,45.3368 320.804,45.1701 326.5,46C 321.309,52.3574 316.309,58.8574 311.5,65.5C 316.133,72.5996 321.133,79.4329 326.5,86C 321.345,87.61 316.012,87.9434 310.5,87C 307.714,83.926 305.048,80.7593 302.5,77.5C 299.962,80.7193 297.296,83.886 294.5,87C 289.5,87.6667 284.5,87.6667 279.5,87C 279.167,86.6667 278.833,86.3333 278.5,86C 283.833,79.3333 289.167,72.6667 294.5,66C 289.254,59.5999 284.254,53.0999 279.5,46.5 Z"/></g>
<g><path style="opacity:0.887" fill="#0c1327" d="M 378.5,45.5 C 381.5,45.5 384.5,45.5 387.5,45.5C 387.5,48.1667 387.5,50.8333 387.5,53.5C 390.518,53.3354 393.518,53.502 396.5,54C 397.435,56.3806 397.768,58.8806 397.5,61.5C 394.167,61.5 390.833,61.5 387.5,61.5C 387.334,67.5092 387.501,73.5092 388,79.5C 390.079,82.6609 392.913,83.3276 396.5,81.5C 401.021,87.8187 399.188,90.8187 391,90.5C 386.425,90.7558 382.758,89.0891 380,85.5C 378.599,77.5852 378.099,69.5852 378.5,61.5C 376.5,61.5 374.5,61.5 372.5,61.5C 372.337,59.1432 372.503,56.8098 373,54.5C 374.699,53.5939 376.533,53.2606 378.5,53.5C 378.5,50.8333 378.5,48.1667 378.5,45.5 Z"/></g>
<g><path style="opacity:0.877" fill="#0c1327" d="M 405.5,53.5 C 408.5,53.5 411.5,53.5 414.5,53.5C 414.334,61.5069 414.5,69.5069 415,77.5C 418.555,82.8981 423.055,83.7314 428.5,80C 429.126,79.2496 429.626,78.4162 430,77.5C 431.363,69.5705 431.863,61.5705 431.5,53.5C 434.5,53.5 437.5,53.5 440.5,53.5C 440.5,65.8333 440.5,78.1667 440.5,90.5C 437.5,90.5 434.5,90.5 431.5,90.5C 431.657,89.1266 431.49,87.7932 431,86.5C 423.696,91.7719 416.362,91.7719 409,86.5C 406.563,83.6235 405.23,80.2902 405,76.5C 404.202,68.754 404.369,61.0873 405.5,53.5 Z"/></g>
<g><path style="opacity:0.875" fill="#0c1327" d="M 495.5,53.5 C 498.5,53.5 501.5,53.5 504.5,53.5C 504.5,65.8333 504.5,78.1667 504.5,90.5C 501.5,90.5 498.5,90.5 495.5,90.5C 495.5,78.1667 495.5,65.8333 495.5,53.5 Z"/></g>
<g><path style="opacity:0.893" fill="#0c1327" d="M 549.5,65.5 C 549.5,69.8333 549.5,74.1667 549.5,78.5C 544.303,87.9305 536.303,91.7638 525.5,90C 511.416,83.9903 507.916,74.1569 515,60.5C 521.918,53.4563 530.085,51.6229 539.5,55C 543.74,57.7379 547.074,61.2379 549.5,65.5 Z M 527.5,61.5 C 539.793,62.1538 543.293,68.1538 538,79.5C 528.845,84.8406 523.012,82.3406 520.5,72C 521.076,67.2691 523.41,63.7691 527.5,61.5 Z"/></g>
<g><path style="opacity:0.917" fill="#f8979b" d="M 20.5,32.5 C 19.7059,40.6951 19.0393,48.6951 18.5,56.5C 15.8333,57.8333 15.8333,59.1667 18.5,60.5C 17.6305,67.9458 17.2971,75.2791 17.5,82.5C 16.5,81.8333 15.5,81.1667 14.5,80.5C 15.4749,75.3189 15.4749,70.3189 14.5,65.5C 15.1667,64.5 15.8333,63.5 16.5,62.5C 15.5925,53.4072 15.5925,44.4072 16.5,35.5C 17.795,34.5116 19.1283,33.5116 20.5,32.5 Z"/></g>
<g><path style="opacity:0.938" fill="#f79397" d="M 18.5,60.5 C 19.5,61.1667 20.5,61.8333 21.5,62.5C 20.5948,65.7194 20.5948,68.7194 21.5,71.5C 20.564,75.7352 20.2307,80.0685 20.5,84.5C 19.5,83.8333 18.5,83.1667 17.5,82.5C 17.2971,75.2791 17.6305,67.9458 18.5,60.5 Z"/></g>
<g><path style="opacity:0.916" fill="#f79094" d="M 21.5,62.5 C 22.1667,62.5 22.5,62.8333 22.5,63.5C 22.7214,66.2788 22.388,68.9455 21.5,71.5C 20.5948,68.7194 20.5948,65.7194 21.5,62.5 Z"/></g>
<g><path style="opacity:0.937" fill="#f68d91" d="M 22.5,63.5 C 24.9687,64.5686 27.3021,65.9019 29.5,67.5C 28.9802,71.6526 28.9802,75.6526 29.5,79.5C 28.5206,82.6248 28.1872,85.9581 28.5,89.5C 25.8646,88.1891 23.5313,86.5224 21.5,84.5C 21.6666,79.9174 21.6666,75.5841 21.5,71.5C 22.388,68.9455 22.7214,66.2788 22.5,63.5 Z"/></g>
<g><path style="opacity:0.927" fill="#f79397" d="M 29.5,67.5 C 31.3325,68.2485 32.9991,69.2485 34.5,70.5C 33.9332,72.0295 33.2666,73.5295 32.5,75C 32.7348,80.8638 32.7348,86.6971 32.5,92.5C 31.5,91.8333 30.5,91.1667 29.5,90.5C 29.6289,86.5234 29.6289,82.8567 29.5,79.5C 28.9802,75.6526 28.9802,71.6526 29.5,67.5 Z"/></g>
<g><path style="opacity:0.942" fill="#f8969b" d="M 34.5,70.5 C 35.5,70.8333 36.1667,71.5 36.5,72.5C 36.0223,79.7593 35.689,87.0927 35.5,94.5C 34.5,93.8333 33.5,93.1667 32.5,92.5C 32.7348,86.6971 32.7348,80.8638 32.5,75C 33.2666,73.5295 33.9332,72.0295 34.5,70.5 Z"/></g>
<g><path style="opacity:0.975" fill="#f79094" d="M 21.5,71.5 C 21.6666,75.5841 21.6666,79.9174 21.5,84.5C 21.1667,84.5 20.8333,84.5 20.5,84.5C 20.2307,80.0685 20.564,75.7352 21.5,71.5 Z"/></g>
<g><path style="opacity:0.929" fill="#fa999d" d="M 36.5,72.5 C 39.6339,73.9009 42.6339,75.5675 45.5,77.5C 44.3624,85.1826 43.6958,92.5159 43.5,99.5C 40.8333,97.8333 38.1667,96.1667 35.5,94.5C 35.689,87.0927 36.0223,79.7593 36.5,72.5 Z"/></g>
<g><path style="opacity:0.932" fill="#fb969b" d="M 45.5,77.5 C 46.1667,77.5 46.5,77.8333 46.5,78.5C 46.5724,86.0415 46.2391,93.3748 45.5,100.5C 44.5084,100.672 43.8417,100.338 43.5,99.5C 43.6958,92.5159 44.3624,85.1826 45.5,77.5 Z"/></g>
<g><path style="opacity:0.928" fill="#fc9297" d="M 46.5,78.5 C 47.7095,78.9321 48.7095,79.5987 49.5,80.5C 49.2168,88.338 48.8835,95.6714 48.5,102.5C 46.9731,102.573 45.9731,101.906 45.5,100.5C 46.2391,93.3748 46.5724,86.0415 46.5,78.5 Z"/></g>
<g><path style="opacity:0.91" fill="#f79094" d="M 29.5,79.5 C 29.6289,82.8567 29.6289,86.5234 29.5,90.5C 28.8333,90.5 28.5,90.1667 28.5,89.5C 28.1872,85.9581 28.5206,82.6248 29.5,79.5 Z"/></g>
<g><path style="opacity:0.929" fill="#fd8c91" d="M 49.5,80.5 C 51.0618,80.7329 52.3951,81.3995 53.5,82.5C 53.5,83.5 53.5,84.5 53.5,85.5C 52.4215,92.2138 51.7548,98.5471 51.5,104.5C 50.2905,104.068 49.2905,103.401 48.5,102.5C 48.8835,95.6714 49.2168,88.338 49.5,80.5 Z"/></g>
<g><path style="opacity:0.34" fill="#fd898e" d="M 53.5,85.5 C 53.83,92.1998 53.4967,98.8665 52.5,105.5C 51.8933,105.376 51.56,105.043 51.5,104.5C 51.7548,98.5471 52.4215,92.2138 53.5,85.5 Z"/></g>
</svg>
