<?xml version="1.0" encoding="UTF-8"?>
<!DOCTYPE svg PUBLIC "-//W3C//DTD SVG 1.1//EN" "http://www.w3.org/Graphics/SVG/1.1/DTD/svg11.dtd">
<svg xmlns="http://www.w3.org/2000/svg" version="1.1" width="200px" height="200px" style="shape-rendering:geometricPrecision; text-rendering:geometricPrecision; image-rendering:optimizeQuality; fill-rule:evenodd; clip-rule:evenodd" xmlns:xlink="http://www.w3.org/1999/xlink">
<g><path style="opacity:0.46" fill="#e8976f" d="M 199.5,47.5 C 199.5,50.5 199.5,53.5 199.5,56.5C 194.331,61.7785 189.164,61.7785 184,56.5C 181.291,46.4457 185.124,42.279 195.5,44C 197.35,44.6897 198.684,45.8564 199.5,47.5 Z M 197.5,48.5 C 195.926,48.9371 194.759,49.9371 194,51.5C 191.805,48.9629 188.972,47.9629 185.5,48.5C 189.5,43.1667 193.5,43.1667 197.5,48.5 Z M 184.5,51.5 C 186.176,52.1834 186.843,53.5168 186.5,55.5C 185.326,54.4863 184.66,53.153 184.5,51.5 Z M 196.5,55.5 C 193.167,59.5 189.833,59.5 186.5,55.5C 187.943,54.6649 188.943,53.3316 189.5,51.5C 190.167,52.8333 190.833,54.1667 191.5,55.5C 192.192,54.9747 192.692,54.3081 193,53.5C 194.596,52.9515 195.763,53.6182 196.5,55.5 Z"/></g>
<g><path style="opacity:0.7" fill="#e79a71" d="M 41.5,46.5 C 42.4972,46.4701 43.1639,46.9701 43.5,48C 44.8808,51.5566 46.0475,55.0566 47,58.5C 43.8708,57.8702 40.7041,57.2036 37.5,56.5C 38.8489,53.141 40.1822,49.8077 41.5,46.5 Z"/></g>
<g><path style="opacity:0.559" fill="#e1e9c2" d="M 185.5,48.5 C 188.972,47.9629 191.805,48.9629 194,51.5C 194.759,49.9371 195.926,48.9371 197.5,48.5C 197.802,51.0593 197.468,53.3926 196.5,55.5C 195.763,53.6182 194.596,52.9515 193,53.5C 192.692,54.3081 192.192,54.9747 191.5,55.5C 190.833,54.1667 190.167,52.8333 189.5,51.5C 188.943,53.3316 187.943,54.6649 186.5,55.5C 186.843,53.5168 186.176,52.1834 184.5,51.5C 184.557,50.391 184.89,49.391 185.5,48.5 Z"/></g>
<g><path style="opacity:0.779" fill="#e89971" d="M 38.5,64.5 C 39.3764,64.3691 40.0431,64.7025 40.5,65.5C 37.6864,72.6162 34.6864,79.6162 31.5,86.5C 30.0239,84.5799 29.0239,82.4133 28.5,80C 30,76.1667 31.5,72.3333 33,68.5C 34.8121,67.0229 36.6455,65.6896 38.5,64.5 Z"/></g>
<g><path style="opacity:0.832" fill="#e1e7c0" d="M 41.5,64.5 C 45.8027,63.7962 49.3027,65.1295 52,68.5C 53.6461,72.2896 55.1461,76.123 56.5,80C 56.0492,82.5684 55.0492,84.9017 53.5,87C 52.6683,87.6877 52.0016,87.521 51.5,86.5C 47.9675,79.2264 44.6341,71.8931 41.5,64.5 Z"/></g>
<g><path style="opacity:0.867" fill="#e1e7bf" d="M 98.5,108.5 C 95.8333,108.5 93.1667,108.5 90.5,108.5C 87.2524,103.684 83.7524,99.0175 80,94.5C 79.5008,99.1548 79.3342,103.821 79.5,108.5C 76.8333,108.5 74.1667,108.5 71.5,108.5C 71.5,99.8333 71.5,91.1667 71.5,82.5C 74.1873,82.3359 76.854,82.5026 79.5,83C 83.3821,87.2139 86.8821,91.7139 90,96.5C 90.4992,91.8452 90.6658,87.1785 90.5,82.5C 93.1667,82.5 95.8333,82.5 98.5,82.5C 98.5,91.1667 98.5,99.8333 98.5,108.5 Z M 90.5,108.5 C 86.8333,108.5 83.1667,108.5 79.5,108.5C 79.3342,103.821 79.5008,99.1548 80,94.5C 83.7524,99.0175 87.2524,103.684 90.5,108.5 Z"/></g>
<g><path style="opacity:0.797" fill="#e1e7bf" d="M 161.5,108.5 C 164.167,109.833 166.833,109.833 169.5,108.5C 174.167,108.5 178.833,108.5 183.5,108.5C 186.167,109.833 188.833,109.833 191.5,108.5C 192.404,109.209 192.737,110.209 192.5,111.5C 149.165,111.667 105.832,111.5 62.5,111C 60.1749,106.015 57.8415,101.015 55.5,96C 56.9443,93.5515 58.7776,91.3848 61,89.5C 63.4024,95.5405 65.9024,101.541 68.5,107.5C 69.325,108.386 70.325,108.719 71.5,108.5C 74.1667,109.833 76.8333,109.833 79.5,108.5C 83.1667,108.5 86.8333,108.5 90.5,108.5C 93.1667,109.833 95.8333,109.833 98.5,108.5C 110.833,108.5 123.167,108.5 135.5,108.5C 135.5,99.8333 135.5,91.1667 135.5,82.5C 142.284,82.0796 148.95,82.5796 155.5,84C 161.24,90.1544 160.24,95.1544 152.5,99C 154.598,101.854 156.931,104.521 159.5,107C 159.167,107.333 158.833,107.667 158.5,108C 159.448,108.483 160.448,108.649 161.5,108.5 Z M 143.5,88.5 C 145.527,88.3379 147.527,88.5045 149.5,89C 150.833,90.3333 150.833,91.6667 149.5,93C 147.527,93.4955 145.527,93.6621 143.5,93.5C 143.5,91.8333 143.5,90.1667 143.5,88.5 Z M 115.5,90.5 C 121.651,91.1029 122.984,93.9362 119.5,99C 114,100.167 111.833,98 113,92.5C 113.995,91.9341 114.828,91.2674 115.5,90.5 Z M 90.5,108.5 C 86.8333,108.5 83.1667,108.5 79.5,108.5C 79.3342,103.821 79.5008,99.1548 80,94.5C 83.7524,99.0175 87.2524,103.684 90.5,108.5 Z M 150.5,108.5 C 148.167,108.5 145.833,108.5 143.5,108.5C 143.335,105.15 143.502,101.817 144,98.5C 145.996,101.986 148.163,105.319 150.5,108.5 Z"/></g>
<g><path style="opacity:0.83" fill="#e1e7bf" d="M 191.5,108.5 C 188.833,108.5 186.167,108.5 183.5,108.5C 184.366,106.856 184.866,105.189 185,103.5C 179.583,104.309 174.083,104.809 168.5,105C 169.337,106.011 169.67,107.178 169.5,108.5C 166.833,108.5 164.167,108.5 161.5,108.5C 164.833,99.8333 168.167,91.1667 171.5,82.5C 174.898,82.1796 178.232,82.513 181.5,83.5C 185.234,91.7098 188.568,100.043 191.5,108.5 Z M 176.5,91.5 C 177.481,93.396 178.481,95.396 179.5,97.5C 177.5,98.8333 175.5,98.8333 173.5,97.5C 174.513,95.4734 175.513,93.4734 176.5,91.5 Z M 183.5,108.5 C 178.833,108.5 174.167,108.5 169.5,108.5C 169.67,107.178 169.337,106.011 168.5,105C 174.083,104.809 179.583,104.309 185,103.5C 184.866,105.189 184.366,106.856 183.5,108.5 Z"/></g>
<g><path style="opacity:0.802" fill="#e79a71" d="M 114.5,85.5 C 125.111,85.5876 128.944,90.5876 126,100.5C 122.169,104.128 117.669,105.295 112.5,104C 106.533,100.608 105.033,95.7742 108,89.5C 110.013,87.7518 112.18,86.4185 114.5,85.5 Z M 115.5,90.5 C 114.828,91.2674 113.995,91.9341 113,92.5C 111.833,98 114,100.167 119.5,99C 122.984,93.9362 121.651,91.1029 115.5,90.5 Z"/></g>
<g><path style="opacity:0.818" fill="#e79a71" d="M -0.5,155.5 C -0.5,154.5 -0.5,153.5 -0.5,152.5C 8.46777,132.272 16.4678,111.606 23.5,90.5C 25.8669,91.1637 27.8669,92.497 29.5,94.5C 21.7058,113.715 14.2058,133.049 7,152.5C 4.87401,154.377 2.37401,155.377 -0.5,155.5 Z"/></g>
</svg>
