<?xml version="1.0" encoding="UTF-8"?>
<!DOCTYPE svg PUBLIC "-//W3C//DTD SVG 1.1//EN" "http://www.w3.org/Graphics/SVG/1.1/DTD/svg11.dtd">
<svg xmlns="http://www.w3.org/2000/svg" version="1.1" width="200px" height="200px" style="shape-rendering:geometricPrecision; text-rendering:geometricPrecision; image-rendering:optimizeQuality; fill-rule:evenodd; clip-rule:evenodd" xmlns:xlink="http://www.w3.org/1999/xlink">
<g><path style="opacity:0.648" fill="#f4e17f" d="M 117.5,25.5 C 117.5,26.1667 117.5,26.8333 117.5,27.5C 109.176,26.3317 100.843,26.3317 92.5,27.5C 92.5,26.8333 92.5,26.1667 92.5,25.5C 100.833,24.1667 109.167,24.1667 117.5,25.5 Z"/></g>
<g><path style="opacity:0.493" fill="#f3dc65" d="M 117.5,25.5 C 122.888,25.762 127.888,27.0954 132.5,29.5C 132.5,30.1667 132.5,30.8333 132.5,31.5C 127.609,29.7584 122.609,28.4251 117.5,27.5C 117.5,26.8333 117.5,26.1667 117.5,25.5 Z"/></g>
<g><path style="opacity:0.686" fill="#f2da65" d="M 92.5,25.5 C 92.5,26.1667 92.5,26.8333 92.5,27.5C 86.033,29.2141 79.6997,31.5474 73.5,34.5C 73.5,33.5 73.5,32.5 73.5,31.5C 79.2401,27.9214 85.5734,25.9214 92.5,25.5 Z"/></g>
<g><path style="opacity:0.526" fill="#e6c855" d="M 132.5,29.5 C 136.151,30.6589 139.485,32.3256 142.5,34.5C 142.5,35.1667 142.5,35.8333 142.5,36.5C 139.167,34.8333 135.833,33.1667 132.5,31.5C 132.5,30.8333 132.5,30.1667 132.5,29.5 Z"/></g>
<g><path style="opacity:0.676" fill="#dfc050" d="M 73.5,31.5 C 73.5,32.5 73.5,33.5 73.5,34.5C 71.0038,35.5804 68.6705,36.9138 66.5,38.5C 66.5,37.1667 66.5,35.8333 66.5,34.5C 68.7128,33.2271 71.0462,32.2271 73.5,31.5 Z"/></g>
<g><path style="opacity:0.538" fill="#d8b54a" d="M 142.5,34.5 C 146.732,36.4002 150.399,39.0669 153.5,42.5C 153.5,42.8333 153.5,43.1667 153.5,43.5C 150.003,40.917 146.336,38.5836 142.5,36.5C 142.5,35.8333 142.5,35.1667 142.5,34.5 Z"/></g>
<g><path style="opacity:1" fill="#b98930" d="M 84.5,36.5 C 86.0265,37.4919 86.6932,38.9919 86.5,41C 86.2587,44.062 85.5921,46.8954 84.5,49.5C 84.5,45.1667 84.5,40.8333 84.5,36.5 Z"/></g>
<g><path style="opacity:0.788" fill="#ecd25b" d="M 81.5,35.5 C 81.5,36.8333 81.5,38.1667 81.5,39.5C 79.9263,40.9842 78.593,42.6508 77.5,44.5C 77.5,42.8333 77.5,41.1667 77.5,39.5C 78.5,37.8333 79.8333,36.5 81.5,35.5 Z"/></g>
<g><path style="opacity:0.66" fill="#cda641" d="M 66.5,34.5 C 66.5,35.8333 66.5,37.1667 66.5,38.5C 61.9863,41.5912 57.653,44.9245 53.5,48.5C 53.5,47.1667 53.5,45.8333 53.5,44.5C 57.2535,40.4516 61.5869,37.1183 66.5,34.5 Z"/></g>
<g><path style="opacity:0.775" fill="#f4e17f" d="M 77.5,39.5 C 77.5,41.1667 77.5,42.8333 77.5,44.5C 75.4634,49.2303 73.4634,53.897 71.5,58.5C 71.5,56.1667 71.5,53.8333 71.5,51.5C 72.4654,46.9024 74.4654,42.9024 77.5,39.5 Z"/></g>
<g><path style="opacity:0.823" fill="#cba33f" d="M 81.5,35.5 C 82.791,35.2627 83.791,35.596 84.5,36.5C 84.5,40.8333 84.5,45.1667 84.5,49.5C 84.2671,52.5418 83.2671,55.2084 81.5,57.5C 81.5,55.5 81.5,53.5 81.5,51.5C 81.9244,47.9661 82.5911,44.4661 83.5,41C 83.676,38.6405 83.0093,38.1405 81.5,39.5C 81.5,38.1667 81.5,36.8333 81.5,35.5 Z"/></g>
<g><path style="opacity:0.444" fill="#c89f3d" d="M 153.5,42.5 C 158.145,45.1453 161.812,48.8119 164.5,53.5C 164.5,54.1667 164.5,54.8333 164.5,55.5C 160.862,51.5259 157.195,47.5259 153.5,43.5C 153.5,43.1667 153.5,42.8333 153.5,42.5 Z"/></g>
<g><path style="opacity:0.708" fill="#bf9134" d="M 53.5,44.5 C 53.5,45.8333 53.5,47.1667 53.5,48.5C 50.1357,52.8574 46.8024,57.1907 43.5,61.5C 43.5,59.8333 43.5,58.1667 43.5,56.5C 45.8824,51.7524 49.2157,47.7524 53.5,44.5 Z"/></g>
<g><path style="opacity:0.647" fill="#e0c151" d="M 81.5,51.5 C 81.5,53.5 81.5,55.5 81.5,57.5C 81.5979,59.5529 80.9313,61.2196 79.5,62.5C 79.5,60.5 79.5,58.5 79.5,56.5C 79.4021,54.4471 80.0687,52.7804 81.5,51.5 Z"/></g>
<g><path style="opacity:0.822" fill="#f3dc64" d="M 71.5,51.5 C 71.5,53.8333 71.5,56.1667 71.5,58.5C 71.5905,61.1522 70.9238,63.4855 69.5,65.5C 69.5,62.8333 69.5,60.1667 69.5,57.5C 69.595,55.2143 70.2616,53.2143 71.5,51.5 Z"/></g>
<g><path style="opacity:0.758" fill="#f1da63" d="M 79.5,56.5 C 79.5,58.5 79.5,60.5 79.5,62.5C 79.0652,65.1573 78.0652,67.4907 76.5,69.5C 76.5,67.5 76.5,65.5 76.5,63.5C 77.2638,60.9823 78.2638,58.649 79.5,56.5 Z"/></g>
<g><path style="opacity:0.764" fill="#f4e180" d="M 76.5,63.5 C 76.5,65.5 76.5,67.5 76.5,69.5C 75.3197,72.5396 73.653,75.2063 71.5,77.5C 71.5,76.1667 71.5,74.8333 71.5,73.5C 72.6589,69.8487 74.3256,66.5154 76.5,63.5 Z"/></g>
<g><path style="opacity:0.751" fill="#dfc050" d="M 69.5,57.5 C 69.5,60.1667 69.5,62.8333 69.5,65.5C 69.1667,68.1667 68.8333,70.8333 68.5,73.5C 67.5206,70.3752 67.1872,67.0419 67.5,63.5C 67.595,61.2143 68.2616,59.2143 69.5,57.5 Z"/></g>
<g><path style="opacity:0.819" fill="#cca440" d="M 67.5,63.5 C 67.1872,67.0419 67.5206,70.3752 68.5,73.5C 67.6993,75.0418 67.366,76.7085 67.5,78.5C 66.1667,78.8333 66.1667,79.1667 67.5,79.5C 67.5,80.8333 67.5,82.1667 67.5,83.5C 67.1667,84.5 66.5,85.1667 65.5,85.5C 65.5,81.1667 65.5,76.8333 65.5,72.5C 65.4203,69.2186 66.087,66.2186 67.5,63.5 Z"/></g>
<g><path style="opacity:0.676" fill="#b4822b" d="M 43.5,56.5 C 43.5,58.1667 43.5,59.8333 43.5,61.5C 38.4496,70.4855 35.2829,80.1521 34,90.5C 32.951,92.1066 31.451,92.7733 29.5,92.5C 30.8491,79.1046 35.5157,67.1046 43.5,56.5 Z"/></g>
<g><path style="opacity:0.132" fill="#b6852e" d="M 164.5,53.5 C 170.65,60.7978 174.984,69.1312 177.5,78.5C 177.5,79.1667 177.167,79.5 176.5,79.5C 173.587,71.0078 169.587,63.0078 164.5,55.5C 164.5,54.8333 164.5,54.1667 164.5,53.5 Z"/></g>
<g><path style="opacity:0.654" fill="#edd35e" d="M 190.5,75.5 C 190.5,76.5 190.5,77.5 190.5,78.5C 188.565,79.1495 186.565,79.4828 184.5,79.5C 184.5,78.5 184.5,77.5 184.5,76.5C 186.265,75.5386 188.265,75.2053 190.5,75.5 Z"/></g>
<g><path style="opacity:0.54" fill="#c99f3d" d="M 190.5,75.5 C 198.35,77.0732 198.35,78.0732 190.5,78.5C 190.5,77.5 190.5,76.5 190.5,75.5 Z"/></g>
<g><path style="opacity:0.855" fill="#f3e182" d="M 184.5,76.5 C 184.5,77.5 184.5,78.5 184.5,79.5C 183.035,80.7368 181.368,81.7368 179.5,82.5C 179.5,81.1667 179.5,79.8333 179.5,78.5C 180.78,77.0687 182.447,76.4021 184.5,76.5 Z"/></g>
<g><path style="opacity:1" fill="#e9ce5a" d="M 71.5,73.5 C 71.5,74.8333 71.5,76.1667 71.5,77.5C 70.6597,79.8525 69.3264,81.8525 67.5,83.5C 67.5,82.1667 67.5,80.8333 67.5,79.5C 67.5,79.1667 67.5,78.8333 67.5,78.5C 68.8333,76.8333 70.1667,75.1667 71.5,73.5 Z"/></g>
<g><path style="opacity:0.648" fill="#f2db67" d="M 87.5,76.5 C 87.5,77.5 87.5,78.5 87.5,79.5C 84.4209,81.5749 82.0875,84.2416 80.5,87.5C 80.5,85.8333 80.5,84.1667 80.5,82.5C 81.5993,79.0679 83.9326,77.0679 87.5,76.5 Z"/></g>
<g><path style="opacity:0.63" fill="#f4e287" d="M 117.5,81.5 C 119.228,84.4218 120.228,87.7551 120.5,91.5C 120.5,92.8333 120.5,94.1667 120.5,95.5C 118.273,94.5994 117.273,92.9328 117.5,90.5C 117.5,87.5 117.5,84.5 117.5,81.5 Z"/></g>
<g><path style="opacity:1" fill="#f3de69" d="M 177.5,78.5 C 178.167,78.5 178.833,78.5 179.5,78.5C 179.5,79.8333 179.5,81.1667 179.5,82.5C 178.833,83.5 178.167,84.5 177.5,85.5C 176.833,85.5 176.5,85.8333 176.5,86.5C 175.833,87.1667 175.167,87.8333 174.5,88.5C 174.5,86.5 174.5,84.5 174.5,82.5C 175.167,81.5 175.833,80.5 176.5,79.5C 177.167,79.5 177.5,79.1667 177.5,78.5 Z"/></g>
<g><path style="opacity:0.776" fill="#dab84c" d="M 48.5,82.5 C 51.2776,82.0217 53.2776,83.0217 54.5,85.5C 53.4515,88.9518 51.4515,91.6185 48.5,93.5C 48.5,92.1667 48.5,90.8333 48.5,89.5C 49.1408,88.5178 49.8075,87.5178 50.5,86.5C 50.0431,85.7025 49.3764,85.3691 48.5,85.5C 48.5,84.5 48.5,83.5 48.5,82.5 Z"/></g>
<g><path style="opacity:0.744" fill="#f4e17e" d="M 138.5,82.5 C 139.947,83.1342 140.613,84.3009 140.5,86C 140.613,87.6991 139.947,88.8658 138.5,89.5C 138.5,87.1667 138.5,84.8333 138.5,82.5 Z"/></g>
<g><path style="opacity:0.713" fill="#f3dd6d" d="M 155.5,82.5 C 160.737,82.9902 161.903,85.6569 159,90.5C 157.961,91.7101 156.794,92.7101 155.5,93.5C 155.5,92.1667 155.5,90.8333 155.5,89.5C 156.141,88.5178 156.807,87.5178 157.5,86.5C 157.043,85.7025 156.376,85.3691 155.5,85.5C 155.5,84.5 155.5,83.5 155.5,82.5 Z"/></g>
<g><path style="opacity:0.657" fill="#dfbf50" d="M 80.5,82.5 C 80.5,84.1667 80.5,85.8333 80.5,87.5C 80.0647,91.9989 79.0647,92.3322 77.5,88.5C 78.001,86.1643 79.001,84.1643 80.5,82.5 Z"/></g>
<g><path style="opacity:0.821" fill="#d8b64a" d="M 174.5,82.5 C 174.5,84.5 174.5,86.5 174.5,88.5C 174.167,89.5 173.5,90.1667 172.5,90.5C 172.5,88.8333 172.5,87.1667 172.5,85.5C 172.932,84.2905 173.599,83.2905 174.5,82.5 Z"/></g>
<g><path style="opacity:0.903" fill="#cca33f" d="M 155.5,82.5 C 155.5,83.5 155.5,84.5 155.5,85.5C 154.248,87.0009 153.248,88.6675 152.5,90.5C 151.566,89.4324 151.232,88.099 151.5,86.5C 151.894,84.2901 153.227,82.9568 155.5,82.5 Z"/></g>
<g><path style="opacity:0.922" fill="#b3812b" d="M 177.5,85.5 C 179.124,85.3601 180.29,86.0267 181,87.5C 181.959,97.6068 181.459,107.607 179.5,117.5C 178.884,106.956 178.217,97.6227 177.5,89.5C 176.596,88.791 176.263,87.791 176.5,86.5C 177.167,86.5 177.5,86.1667 177.5,85.5 Z"/></g>
<g><path style="opacity:0.693" fill="#eace59" d="M 48.5,82.5 C 48.5,83.5 48.5,84.5 48.5,85.5C 46.805,87.2134 45.9717,89.2134 46,91.5C 46.7083,90.6195 47.5416,89.9528 48.5,89.5C 48.5,90.8333 48.5,92.1667 48.5,93.5C 43.1866,96.572 43.1866,99.572 48.5,102.5C 48.5,103.5 48.5,104.5 48.5,105.5C 46.4471,105.598 44.7804,104.931 43.5,103.5C 43.5,98.5 43.5,93.5 43.5,88.5C 43.7616,85.3013 45.4283,83.3013 48.5,82.5 Z"/></g>
<g><path style="opacity:0.689" fill="#f3dc68" d="M 134.5,82.5 C 135.833,82.5 137.167,82.5 138.5,82.5C 138.5,84.8333 138.5,87.1667 138.5,89.5C 138.262,91.4044 137.262,92.7377 135.5,93.5C 135.5,92.1667 135.5,90.8333 135.5,89.5C 136.028,88.2794 136.695,87.1127 137.5,86C 136.423,85.5304 135.423,85.6971 134.5,86.5C 134.5,85.1667 134.5,83.8333 134.5,82.5 Z"/></g>
<g><path style="opacity:0.652" fill="#b7862e" d="M 179.5,117.5 C 178.5,120.833 177.5,124.167 176.5,127.5C 175.527,125.052 175.194,122.385 175.5,119.5C 177.163,109.581 177.83,99.5813 177.5,89.5C 178.217,97.6227 178.884,106.956 179.5,117.5 Z"/></g>
<g><path style="opacity:0.21" fill="#f3de6d" d="M 117.5,81.5 C 117.5,84.5 117.5,87.5 117.5,90.5C 115.9,92.7026 114.567,95.036 113.5,97.5C 113.5,95.5 113.5,93.5 113.5,91.5C 113.872,87.7029 115.206,84.3695 117.5,81.5 Z"/></g>
<g><path style="opacity:0.835" fill="#c39839" d="M 134.5,82.5 C 134.5,83.8333 134.5,85.1667 134.5,86.5C 133.645,87.5307 132.978,88.6974 132.5,90C 132.57,90.7648 132.903,91.2648 133.5,91.5C 133.5,92.5 133.5,93.5 133.5,94.5C 130.853,96.8956 130.853,99.2289 133.5,101.5C 133.5,102.833 133.5,104.167 133.5,105.5C 132.29,105.068 131.29,104.401 130.5,103.5C 130.5,98.1667 130.5,92.8333 130.5,87.5C 131.08,85.2512 132.413,83.5846 134.5,82.5 Z"/></g>
<g><path style="opacity:0.903" fill="#c29638" d="M 172.5,85.5 C 172.5,87.1667 172.5,88.8333 172.5,90.5C 171.214,93.117 169.547,95.4504 167.5,97.5C 166.646,96.3684 166.646,95.035 167.5,93.5C 169.181,90.7972 170.847,88.1305 172.5,85.5 Z"/></g>
<g><path style="opacity:0.784" fill="#dcba4d" d="M 135.5,89.5 C 135.5,90.8333 135.5,92.1667 135.5,93.5C 134.833,93.8333 134.167,94.1667 133.5,94.5C 133.5,93.5 133.5,92.5 133.5,91.5C 133.833,90.5 134.5,89.8333 135.5,89.5 Z"/></g>
<g><path style="opacity:1" fill="#b8872e" d="M 151.5,86.5 C 151.232,88.099 151.566,89.4324 152.5,90.5C 152.5,90.8333 152.5,91.1667 152.5,91.5C 151.833,91.5 151.5,91.8333 151.5,92.5C 151.5,93.5 151.5,94.5 151.5,95.5C 151.054,98.0101 151.72,100.01 153.5,101.5C 153.5,102.833 153.5,104.167 153.5,105.5C 149.83,104.172 148.163,101.505 148.5,97.5C 148.5,95.8333 148.5,94.1667 148.5,92.5C 148.992,90.1815 149.992,88.1815 151.5,86.5 Z"/></g>
<g><path style="opacity:0.611" fill="#cfa842" d="M 155.5,89.5 C 155.5,90.8333 155.5,92.1667 155.5,93.5C 154.395,94.6005 153.062,95.2671 151.5,95.5C 151.5,94.5 151.5,93.5 151.5,92.5C 152.167,92.5 152.5,92.1667 152.5,91.5C 153.5,90.8333 154.5,90.1667 155.5,89.5 Z"/></g>
<g><path style="opacity:0.617" fill="#f4e17f" d="M 87.5,76.5 C 90.2585,76.7573 91.9251,78.2573 92.5,81C 91.3991,84.6491 89.7324,87.9824 87.5,91C 89.2331,92.1889 90.8998,93.3556 92.5,94.5C 92.5,95.8333 92.5,97.1667 92.5,98.5C 89.2119,96.0061 85.8786,94.3395 82.5,93.5C 85.5569,90.0528 87.5569,86.0528 88.5,81.5C 88.4573,80.5836 88.1239,79.9169 87.5,79.5C 87.5,78.5 87.5,77.5 87.5,76.5 Z"/></g>
<g><path style="opacity:0.748" fill="#c9a03e" d="M 105.5,90.5 C 105.5,91.8333 105.5,93.1667 105.5,94.5C 104.833,94.5 104.5,94.8333 104.5,95.5C 104.167,95.5 103.833,95.5 103.5,95.5C 102.662,95.1583 102.328,94.4916 102.5,93.5C 103.167,92.1667 104.167,91.1667 105.5,90.5 Z"/></g>
<g><path style="opacity:0.596" fill="#f0d865" d="M 120.5,91.5 C 121.935,93.4011 123.602,93.7345 125.5,92.5C 125.5,93.8333 125.5,95.1667 125.5,96.5C 123.708,96.634 122.042,96.3007 120.5,95.5C 120.5,94.1667 120.5,92.8333 120.5,91.5 Z"/></g>
<g><path style="opacity:0.778" fill="#d6b349" d="M 128.5,91.5 C 128.768,93.099 128.434,94.4324 127.5,95.5C 126.833,95.8333 126.167,96.1667 125.5,96.5C 125.5,95.1667 125.5,93.8333 125.5,92.5C 126.391,91.8902 127.391,91.5569 128.5,91.5 Z"/></g>
<g><path style="opacity:0.811" fill="#f3dc66" d="M 43.5,88.5 C 43.5,93.5 43.5,98.5 43.5,103.5C 41.9261,101.898 41.2594,99.8984 41.5,97.5C 39.5,97.8333 37.5,98.1667 35.5,98.5C 35.5,97.5 35.5,96.5 35.5,95.5C 37.0858,94.8519 38.7525,94.3519 40.5,94C 41.2291,91.9419 42.2291,90.1086 43.5,88.5 Z"/></g>
<g><path style="opacity:0.714" fill="#bc8d33" d="M 65.5,72.5 C 65.5,76.8333 65.5,81.1667 65.5,85.5C 65.1391,93.1617 64.8058,100.828 64.5,108.5C 64.4057,115.419 65.0724,122.252 66.5,129C 65.5179,131.861 64.5179,132.028 63.5,129.5C 63.4817,111.825 63.8151,94.1583 64.5,76.5C 64.2322,74.901 64.5655,73.5676 65.5,72.5 Z"/></g>
<g><path style="opacity:0.707" fill="#b6852e" d="M 108.5,103.5 C 108.5,104.5 108.5,105.5 108.5,106.5C 106.983,106.489 105.816,105.823 105,104.5C 104.502,101.518 104.335,98.5184 104.5,95.5C 105.167,95.5 105.5,95.1667 105.5,94.5C 105.5,93.1667 105.5,91.8333 105.5,90.5C 105.993,88.1944 106.326,85.861 106.5,83.5C 107.5,83.5 108.5,83.5 109.5,83.5C 109.341,89.4441 108.674,95.6107 107.5,102C 107.57,102.765 107.903,103.265 108.5,103.5 Z"/></g>
<g><path style="opacity:0.62" fill="#c29537" d="M 62.5,91.5 C 62.6747,93.6208 62.3414,95.6208 61.5,97.5C 60.1667,98.5 58.8333,99.5 57.5,100.5C 57.5,99.1667 57.5,97.8333 57.5,96.5C 58.8333,94.5 60.5,92.8333 62.5,91.5 Z"/></g>
<g><path style="opacity:0.905" fill="#b5832c" d="M 130.5,87.5 C 130.5,92.8333 130.5,98.1667 130.5,103.5C 128.018,101.497 127.018,98.8306 127.5,95.5C 128.434,94.4324 128.768,93.099 128.5,91.5C 128.989,90.0048 129.655,88.6715 130.5,87.5 Z"/></g>
<g><path style="opacity:0.775" fill="#f1da65" d="M 15.5,95.5 C 18.5,95.5 21.5,95.5 24.5,95.5C 24.5,96.8333 24.5,98.1667 24.5,99.5C 21.5,99.5 18.5,99.5 15.5,99.5C 15.5,98.1667 15.5,96.8333 15.5,95.5 Z"/></g>
<g><path style="opacity:0.669" fill="#f4e181" d="M 24.5,95.5 C 28.1667,95.5 31.8333,95.5 35.5,95.5C 35.5,96.5 35.5,97.5 35.5,98.5C 32.0381,99.4816 28.3714,99.815 24.5,99.5C 24.5,98.1667 24.5,96.8333 24.5,95.5 Z"/></g>
<g><path style="opacity:0.622" fill="#efd660" d="M 145.5,95.5 C 145.263,96.791 145.596,97.791 146.5,98.5C 145.564,99.9744 144.23,100.974 142.5,101.5C 142.5,100.5 142.5,99.5 142.5,98.5C 143.167,97.1667 144.167,96.1667 145.5,95.5 Z"/></g>
<g><path style="opacity:0.662" fill="#d4b047" d="M 15.5,95.5 C 15.5,96.8333 15.5,98.1667 15.5,99.5C 13.139,99.6741 10.8056,100.007 8.5,100.5C 8.5,99.1667 8.5,97.8333 8.5,96.5C 10.8056,96.0074 13.139,95.6741 15.5,95.5 Z"/></g>
<g><path style="opacity:0.416" fill="#dbba4d" d="M 148.5,92.5 C 148.5,94.1667 148.5,95.8333 148.5,97.5C 147.833,97.8333 147.167,98.1667 146.5,98.5C 145.596,97.791 145.263,96.791 145.5,95.5C 146.167,94.1667 147.167,93.1667 148.5,92.5 Z"/></g>
<g><path style="opacity:0.574" fill="#eed560" d="M 167.5,93.5 C 166.646,95.035 166.646,96.3684 167.5,97.5C 166.415,99.5869 164.749,100.92 162.5,101.5C 162.5,100.5 162.5,99.5 162.5,98.5C 163.833,96.5 165.5,94.8333 167.5,93.5 Z"/></g>
<g><path style="opacity:0.969" fill="#b4822b" d="M 64.5,76.5 C 63.8151,94.1583 63.4817,111.825 63.5,129.5C 62.6909,127.708 62.1909,125.708 62,123.5C 61.5002,114.84 61.3336,106.173 61.5,97.5C 62.3414,95.6208 62.6747,93.6208 62.5,91.5C 62.4443,86.2688 63.111,81.2688 64.5,76.5 Z"/></g>
<g><path style="opacity:0.702" fill="#e6c956" d="M 102.5,93.5 C 102.328,94.4916 102.662,95.1583 103.5,95.5C 101.873,97.6298 100.04,99.6298 98,101.5C 97.7185,105.162 97.8852,108.829 98.5,112.5C 98.3528,116.396 97.6862,120.062 96.5,123.5C 96.5,115.167 96.5,106.833 96.5,98.5C 98.4602,96.8437 100.46,95.177 102.5,93.5 Z"/></g>
<g><path style="opacity:0.751" fill="#e0c050" d="M 113.5,91.5 C 113.5,93.5 113.5,95.5 113.5,97.5C 113.598,99.5529 112.931,101.22 111.5,102.5C 111.5,100.5 111.5,98.5 111.5,96.5C 111.402,94.4471 112.069,92.7804 113.5,91.5 Z"/></g>
<g><path style="opacity:0.647" fill="#bc8e33" d="M 8.5,96.5 C 8.5,97.8333 8.5,99.1667 8.5,100.5C 5.30333,100.405 2.30333,101.072 -0.5,102.5C -0.5,101.5 -0.5,100.5 -0.5,99.5C 2.42138,98.304 5.42138,97.304 8.5,96.5 Z"/></g>
<g><path style="opacity:0.732" fill="#f4e07a" d="M 142.5,98.5 C 142.5,99.5 142.5,100.5 142.5,101.5C 140.664,103.588 138.331,104.921 135.5,105.5C 135.5,104.5 135.5,103.5 135.5,102.5C 137.929,101.449 140.262,100.116 142.5,98.5 Z"/></g>
<g><path style="opacity:0.662" fill="#f4e183" d="M 162.5,98.5 C 162.5,99.5 162.5,100.5 162.5,101.5C 161.564,102.974 160.23,103.974 158.5,104.5C 158.5,103.5 158.5,102.5 158.5,101.5C 159.795,100.512 161.128,99.5116 162.5,98.5 Z"/></g>
<g><path style="opacity:0.626" fill="#d5b148" d="M 57.5,96.5 C 57.5,97.8333 57.5,99.1667 57.5,100.5C 55.2515,103.393 52.2515,105.06 48.5,105.5C 48.5,104.5 48.5,103.5 48.5,102.5C 51.945,101.27 54.945,99.2699 57.5,96.5 Z"/></g>
<g><path style="opacity:0.908" fill="#cba33f" d="M 111.5,96.5 C 111.5,98.5 111.5,100.5 111.5,102.5C 111.262,104.404 110.262,105.738 108.5,106.5C 108.5,105.5 108.5,104.5 108.5,103.5C 108.935,100.843 109.935,98.5093 111.5,96.5 Z"/></g>
<g><path style="opacity:0.204" fill="#b3802a" d="M 42.5,137.5 C 42.5,138.167 42.5,138.833 42.5,139.5C 34.017,127.907 30.3503,114.907 31.5,100.5C 32.5619,113.679 36.2286,126.012 42.5,137.5 Z"/></g>
<g><path style="opacity:0.538" fill="#dbba4c" d="M 133.5,101.5 C 134.167,101.833 134.833,102.167 135.5,102.5C 135.5,103.5 135.5,104.5 135.5,105.5C 134.833,105.5 134.167,105.5 133.5,105.5C 133.5,104.167 133.5,102.833 133.5,101.5 Z"/></g>
<g><path style="opacity:0.546" fill="#d9b64b" d="M 153.5,101.5 C 154.167,101.833 154.833,102.167 155.5,102.5C 155.5,103.5 155.5,104.5 155.5,105.5C 154.833,105.5 154.167,105.5 153.5,105.5C 153.5,104.167 153.5,102.833 153.5,101.5 Z"/></g>
<g><path style="opacity:0.588" fill="#f2dc65" d="M 158.5,101.5 C 158.5,102.5 158.5,103.5 158.5,104.5C 157.609,105.11 156.609,105.443 155.5,105.5C 155.5,104.5 155.5,103.5 155.5,102.5C 156.209,101.596 157.209,101.263 158.5,101.5 Z"/></g>
<g><path style="opacity:0.709" fill="#f4e182" d="M 91.5,104.5 C 91.5,105.833 91.5,107.167 91.5,108.5C 89.4884,111.205 87.4884,113.872 85.5,116.5C 85.5,115.167 85.5,113.833 85.5,112.5C 87.016,109.467 89.016,106.8 91.5,104.5 Z"/></g>
<g><path style="opacity:0.194" fill="#f2dc65" d="M 92.5,94.5 C 94.1942,95.5274 95.5275,96.8608 96.5,98.5C 96.5,106.833 96.5,115.167 96.5,123.5C 96.2024,129.052 94.5357,134.052 91.5,138.5C 91.5,136.5 91.5,134.5 91.5,132.5C 94.1969,123.693 95.0302,114.693 94,105.5C 93.1482,106.571 92.3149,107.571 91.5,108.5C 91.5,107.167 91.5,105.833 91.5,104.5C 93.5314,102.751 93.8647,100.751 92.5,98.5C 92.5,97.1667 92.5,95.8333 92.5,94.5 Z"/></g>
<g><path style="opacity:0.275" fill="#f5e277" d="M 160.5,113.5 C 160.5,114.167 160.5,114.833 160.5,115.5C 159.5,115.5 158.5,115.5 157.5,115.5C 157.5,114.833 157.5,114.167 157.5,113.5C 158.348,112.375 159.348,112.375 160.5,113.5 Z"/></g>
<g><path style="opacity:0.382" fill="#bb8b31" d="M 121.5,113.5 C 121.5,114.167 121.5,114.833 121.5,115.5C 119.938,117.372 118.938,119.705 118.5,122.5C 117.893,122.376 117.56,122.043 117.5,121.5C 117.5,120.5 117.5,119.5 117.5,118.5C 117.5,116.833 117.5,115.167 117.5,113.5C 118.833,113.5 120.167,113.5 121.5,113.5 Z"/></g>
<g><path style="opacity:0.384" fill="#e9cf63" d="M 127.5,113.5 C 128.833,113.5 130.167,113.5 131.5,113.5C 131.5,114.167 131.5,114.833 131.5,115.5C 130.167,115.5 128.833,115.5 127.5,115.5C 127.5,114.833 127.5,114.167 127.5,113.5 Z"/></g>
<g><path style="opacity:0.265" fill="#b27f2a" d="M 147.5,113.5 C 147.5,114.167 147.5,114.833 147.5,115.5C 147.5,116.167 147.5,116.833 147.5,117.5C 147.5,118.167 147.5,118.833 147.5,119.5C 147.719,120.675 147.386,121.675 146.5,122.5C 145.828,121.051 145.161,119.718 144.5,118.5C 144.5,117.167 144.5,115.833 144.5,114.5C 145.391,113.89 146.391,113.557 147.5,113.5 Z"/></g>
<g><path style="opacity:0.58" fill="#e4c860" d="M 164.5,113.5 C 169.833,114.167 169.833,114.833 164.5,115.5C 164.5,114.833 164.5,114.167 164.5,113.5 Z"/></g>
<g><path style="opacity:0.184" fill="#f2dc71" d="M 107.5,113.5 C 108.5,113.5 109.5,113.5 110.5,113.5C 110.5,114.167 110.5,114.833 110.5,115.5C 109.5,115.5 108.5,115.5 107.5,115.5C 107.5,114.833 107.5,114.167 107.5,113.5 Z"/></g>
<g><path style="opacity:0.529" fill="#f4df6f" d="M 134.5,113.5 C 135.5,113.5 136.5,113.5 137.5,113.5C 137.5,114.167 137.5,114.833 137.5,115.5C 136.5,115.5 135.5,115.5 134.5,115.5C 134.5,114.833 134.5,114.167 134.5,113.5 Z"/></g>
<g><path style="opacity:0.238" fill="#ba8b2f" d="M 137.5,113.5 C 138.702,114.405 140.036,114.405 141.5,113.5C 141.5,114.167 141.5,114.833 141.5,115.5C 141.5,116.167 141.5,116.833 141.5,117.5C 141.5,118.167 141.5,118.833 141.5,119.5C 141.5,120.5 141.5,121.5 141.5,122.5C 140.5,122.5 139.5,122.5 138.5,122.5C 138.5,121.833 138.5,121.167 138.5,120.5C 139.573,119.749 139.74,118.749 139,117.5C 138.617,118.056 138.117,118.389 137.5,118.5C 137.5,117.833 137.5,117.167 137.5,116.5C 137.5,116.167 137.5,115.833 137.5,115.5C 137.5,114.833 137.5,114.167 137.5,113.5 Z"/></g>
<g><path style="opacity:0.771" fill="#f0d862" d="M 85.5,112.5 C 85.5,113.833 85.5,115.167 85.5,116.5C 83.8627,120.118 81.8627,123.451 79.5,126.5C 79.5,124.833 79.5,123.167 79.5,121.5C 80.7589,117.975 82.7589,114.975 85.5,112.5 Z"/></g>
<g><path style="opacity:0.827" fill="#f2de70" d="M 113.5,114.5 C 115.194,115.527 116.527,116.861 117.5,118.5C 117.5,119.5 117.5,120.5 117.5,121.5C 116.527,119.861 115.194,118.527 113.5,117.5C 113.5,116.5 113.5,115.5 113.5,114.5 Z"/></g>
<g><path style="opacity:0.311" fill="#f6e47b" d="M 121.5,113.5 C 122.5,113.5 123.5,113.5 124.5,113.5C 124.5,114.167 124.5,114.833 124.5,115.5C 123.835,117.698 123.168,120.031 122.5,122.5C 121.526,120.257 121.192,117.924 121.5,115.5C 121.5,114.833 121.5,114.167 121.5,113.5 Z"/></g>
<g><path style="opacity:0.592" fill="#edd465" d="M 141.5,113.5 C 142.791,113.263 143.791,113.596 144.5,114.5C 144.5,115.833 144.5,117.167 144.5,118.5C 143.609,119.11 142.609,119.443 141.5,119.5C 141.5,118.833 141.5,118.167 141.5,117.5C 144.167,116.833 144.167,116.167 141.5,115.5C 141.5,114.833 141.5,114.167 141.5,113.5 Z"/></g>
<g><path style="opacity:0.441" fill="#f5e175" d="M 157.5,116.5 C 158.609,116.557 159.609,116.89 160.5,117.5C 160.5,118.167 160.5,118.833 160.5,119.5C 159.609,118.89 158.609,118.557 157.5,118.5C 157.5,117.833 157.5,117.167 157.5,116.5 Z"/></g>
<g><path style="opacity:0.012" fill="#c9a03d" d="M 166.5,116.5 C 169.167,117.167 169.167,117.833 166.5,118.5C 166.5,117.833 166.5,117.167 166.5,116.5 Z"/></g>
<g><path style="opacity:0.514" fill="#f3dd72" d="M 107.5,116.5 C 111.5,117.167 111.5,117.833 107.5,118.5C 107.5,117.833 107.5,117.167 107.5,116.5 Z"/></g>
<g><path style="opacity:0.41" fill="#b17e29" d="M 110.5,113.5 C 111.791,113.263 112.791,113.596 113.5,114.5C 113.5,115.5 113.5,116.5 113.5,117.5C 113.5,119.167 113.5,120.833 113.5,122.5C 112.5,122.5 111.5,122.5 110.5,122.5C 110.5,121.833 110.5,121.167 110.5,120.5C 111.833,118.833 111.833,117.167 110.5,115.5C 110.5,114.833 110.5,114.167 110.5,113.5 Z"/></g>
<g><path style="opacity:0.626" fill="#ad7824" d="M 124.5,113.5 C 125.5,113.5 126.5,113.5 127.5,113.5C 127.5,114.167 127.5,114.833 127.5,115.5C 127.5,115.833 127.5,116.167 127.5,116.5C 127.5,117.167 127.5,117.833 127.5,118.5C 127.5,119.167 127.5,119.833 127.5,120.5C 127.5,121.167 127.5,121.833 127.5,122.5C 125.98,120.412 124.98,118.078 124.5,115.5C 124.5,114.833 124.5,114.167 124.5,113.5 Z"/></g>
<g><path style="opacity:0.494" fill="#ecd265" d="M 127.5,116.5 C 132.833,117.167 132.833,117.833 127.5,118.5C 127.5,117.833 127.5,117.167 127.5,116.5 Z"/></g>
<g><path style="opacity:0.525" fill="#f9e77c" d="M 164.5,116.5 C 165.167,116.5 165.833,116.5 166.5,116.5C 166.5,117.167 166.5,117.833 166.5,118.5C 165.833,118.5 165.167,118.5 164.5,118.5C 164.5,117.833 164.5,117.167 164.5,116.5 Z"/></g>
<g><path style="opacity:0.427" fill="#b7852b" d="M 107.5,113.5 C 107.5,114.167 107.5,114.833 107.5,115.5C 107.5,115.833 107.5,116.167 107.5,116.5C 107.5,117.167 107.5,117.833 107.5,118.5C 107.5,119.167 107.5,119.833 107.5,120.5C 107.5,121.167 107.5,121.833 107.5,122.5C 106.235,121.486 105.569,119.986 105.5,118C 105.569,116.014 106.235,114.514 107.5,113.5 Z"/></g>
<g><path style="opacity:0.554" fill="#edd466" d="M 137.5,116.5 C 137.5,117.167 137.5,117.833 137.5,118.5C 137.833,119.167 138.167,119.833 138.5,120.5C 138.5,121.167 138.5,121.833 138.5,122.5C 137.167,121.5 135.833,120.5 134.5,119.5C 134.5,118.833 134.5,118.167 134.5,117.5C 135.609,117.443 136.609,117.11 137.5,116.5 Z"/></g>
<g><path style="opacity:0.831" fill="#eed568" d="M 147.5,113.5 C 149.099,113.232 150.432,113.566 151.5,114.5C 151.5,115.833 151.5,117.167 151.5,118.5C 150.494,118.938 150.494,119.604 151.5,120.5C 151.5,121.167 151.5,121.833 151.5,122.5C 150.363,121.211 149.03,120.211 147.5,119.5C 147.5,118.833 147.5,118.167 147.5,117.5C 151.5,116.833 151.5,116.167 147.5,115.5C 147.5,114.833 147.5,114.167 147.5,113.5 Z"/></g>
<g><path style="opacity:0.608" fill="#ba8a2f" d="M 160.5,113.5 C 161.702,114.405 163.036,114.405 164.5,113.5C 164.5,114.167 164.5,114.833 164.5,115.5C 164.5,115.833 164.5,116.167 164.5,116.5C 164.5,117.167 164.5,117.833 164.5,118.5C 164.5,119.167 164.5,119.833 164.5,120.5C 164.5,121.167 164.5,121.833 164.5,122.5C 163.25,122.423 162.417,121.756 162,120.5C 161.617,121.056 161.117,121.389 160.5,121.5C 160.5,121.167 160.5,120.833 160.5,120.5C 160.5,120.167 160.5,119.833 160.5,119.5C 160.5,118.833 160.5,118.167 160.5,117.5C 161.363,118.463 162.03,118.463 162.5,117.5C 161.757,116.818 161.091,116.151 160.5,115.5C 160.5,114.833 160.5,114.167 160.5,113.5 Z"/></g>
<g><path style="opacity:0.304" fill="#b6842c" d="M 131.5,113.5 C 132.5,113.5 133.5,113.5 134.5,113.5C 134.5,114.167 134.5,114.833 134.5,115.5C 134.5,116.167 134.5,116.833 134.5,117.5C 134.5,118.167 134.5,118.833 134.5,119.5C 134.5,120.5 134.5,121.5 134.5,122.5C 133.167,122.5 131.833,122.5 130.5,122.5C 130.5,121.833 130.5,121.167 130.5,120.5C 131.649,120.209 132.316,119.376 132.5,118C 132.472,116.93 132.139,116.097 131.5,115.5C 131.5,114.833 131.5,114.167 131.5,113.5 Z"/></g>
<g><path style="opacity:0.427" fill="#c79c39" d="M 157.5,120.5 C 157.5,121.167 157.5,121.833 157.5,122.5C 156.522,122.189 155.855,121.522 155.5,120.5C 156.257,119.227 156.923,119.227 157.5,120.5 Z"/></g>
<g><path style="opacity:0.137" fill="#bb8c31" d="M 157.5,113.5 C 157.5,114.167 157.5,114.833 157.5,115.5C 157.5,115.833 157.5,116.167 157.5,116.5C 157.5,117.167 157.5,117.833 157.5,118.5C 156.542,118.047 155.708,117.381 155,116.5C 154.505,118.473 154.338,120.473 154.5,122.5C 153.5,122.5 152.5,122.5 151.5,122.5C 151.5,121.833 151.5,121.167 151.5,120.5C 152.833,119.833 152.833,119.167 151.5,118.5C 151.5,117.167 151.5,115.833 151.5,114.5C 153.129,112.94 154.296,113.273 155,115.5C 155.417,114.244 156.25,113.577 157.5,113.5 Z"/></g>
<g><path style="opacity:0.473" fill="#f4e075" d="M 157.5,120.5 C 158.5,120.5 159.5,120.5 160.5,120.5C 160.5,120.833 160.5,121.167 160.5,121.5C 159.791,122.404 158.791,122.737 157.5,122.5C 157.5,121.833 157.5,121.167 157.5,120.5 Z"/></g>
<g><path style="opacity:0.616" fill="#e5c960" d="M 164.5,120.5 C 169.833,121.167 169.833,121.833 164.5,122.5C 164.5,121.833 164.5,121.167 164.5,120.5 Z"/></g>
<g><path style="opacity:0.384" fill="#f1db6d" d="M 107.5,120.5 C 108.5,120.5 109.5,120.5 110.5,120.5C 110.5,121.167 110.5,121.833 110.5,122.5C 109.5,122.5 108.5,122.5 107.5,122.5C 107.5,121.833 107.5,121.167 107.5,120.5 Z"/></g>
<g><path style="opacity:0.384" fill="#f0d96d" d="M 127.5,120.5 C 128.5,120.5 129.5,120.5 130.5,120.5C 130.5,121.167 130.5,121.833 130.5,122.5C 129.5,122.5 128.5,122.5 127.5,122.5C 127.5,121.833 127.5,121.167 127.5,120.5 Z"/></g>
<g><path style="opacity:0.674" fill="#d2ac45" d="M 79.5,121.5 C 79.5,123.167 79.5,124.833 79.5,126.5C 78.5371,129.744 77.2038,132.744 75.5,135.5C 75.5,133.5 75.5,131.5 75.5,129.5C 76.3257,126.515 77.659,123.849 79.5,121.5 Z"/></g>
<g><path style="opacity:0.708" fill="#bf9235" d="M 175.5,119.5 C 175.194,122.385 175.527,125.052 176.5,127.5C 173.823,134.204 170.156,140.204 165.5,145.5C 165.5,143.833 165.5,142.167 165.5,140.5C 169.67,133.83 173.003,126.83 175.5,119.5 Z"/></g>
<g><path style="opacity:0.604" fill="#f4e184" d="M 91.5,132.5 C 91.5,134.5 91.5,136.5 91.5,138.5C 90.6167,141.704 88.9501,144.371 86.5,146.5C 86.5,145.167 86.5,143.833 86.5,142.5C 88.1749,139.123 89.8416,135.789 91.5,132.5 Z"/></g>
<g><path style="opacity:0.505" fill="#bf9235" d="M 42.5,137.5 C 46.4697,142.476 50.4697,147.476 54.5,152.5C 54.5,153.167 54.5,153.833 54.5,154.5C 50.8348,151.667 47.6682,148.334 45,144.5C 43.9055,142.922 43.0722,141.255 42.5,139.5C 42.5,138.833 42.5,138.167 42.5,137.5 Z"/></g>
<g><path style="opacity:0.71" fill="#f1da68" d="M 86.5,142.5 C 86.5,143.833 86.5,145.167 86.5,146.5C 84.5419,149.792 82.2085,152.792 79.5,155.5C 79.5,154.167 79.5,152.833 79.5,151.5C 81.6029,148.28 83.9362,145.28 86.5,142.5 Z"/></g>
<g><path style="opacity:0.619" fill="#cfa842" d="M 165.5,140.5 C 165.5,142.167 165.5,143.833 165.5,145.5C 162.877,149.791 159.544,153.457 155.5,156.5C 155.5,155.167 155.5,153.833 155.5,152.5C 159.24,148.767 162.573,144.767 165.5,140.5 Z"/></g>
<g><path style="opacity:0.701" fill="#b8882f" d="M 75.5,129.5 C 75.5,131.5 75.5,133.5 75.5,135.5C 73.8646,140.91 72.5312,146.41 71.5,152C 71.0273,155.711 72.3606,156.878 75.5,155.5C 75.5,156.5 75.5,157.5 75.5,158.5C 70.8012,159.853 68.1345,157.853 67.5,152.5C 69.1115,144.346 71.7781,136.679 75.5,129.5 Z"/></g>
<g><path style="opacity:0.679" fill="#d2ad45" d="M 79.5,151.5 C 79.5,152.833 79.5,154.167 79.5,155.5C 78.5637,156.974 77.2303,157.974 75.5,158.5C 75.5,157.5 75.5,156.5 75.5,155.5C 76.5,153.833 77.8333,152.5 79.5,151.5 Z"/></g>
<g><path style="opacity:0.562" fill="#d1ac45" d="M 54.5,152.5 C 58.5238,155.531 62.5238,158.531 66.5,161.5C 66.5,162.167 66.5,162.833 66.5,163.5C 61.9103,161.238 57.9103,158.238 54.5,154.5C 54.5,153.833 54.5,153.167 54.5,152.5 Z"/></g>
<g><path style="opacity:0.667" fill="#debe4f" d="M 155.5,152.5 C 155.5,153.833 155.5,155.167 155.5,156.5C 151.442,159.89 147.109,162.89 142.5,165.5C 142.5,164.5 142.5,163.5 142.5,162.5C 146.809,159.198 151.143,155.864 155.5,152.5 Z"/></g>
<g><path style="opacity:0.608" fill="#e3c553" d="M 66.5,161.5 C 69.8333,163.167 73.1667,164.833 76.5,166.5C 76.5,167.167 76.5,167.833 76.5,168.5C 72.8487,167.341 69.5154,165.674 66.5,163.5C 66.5,162.833 66.5,162.167 66.5,161.5 Z"/></g>
<g><path style="opacity:0.599" fill="#f2dc66" d="M 76.5,166.5 C 81.5222,168.396 86.5222,170.063 91.5,171.5C 91.5,172.167 91.5,172.833 91.5,173.5C 86.0787,172.804 81.0787,171.137 76.5,168.5C 76.5,167.833 76.5,167.167 76.5,166.5 Z"/></g>
<g><path style="opacity:0.6" fill="#f0d761" d="M 142.5,162.5 C 142.5,163.5 142.5,164.5 142.5,165.5C 136.681,169.218 130.348,171.551 123.5,172.5C 123.5,171.833 123.5,171.167 123.5,170.5C 129.881,168.149 136.214,165.482 142.5,162.5 Z"/></g>
<g><path style="opacity:0.86" fill="#f4e17f" d="M 123.5,170.5 C 123.5,171.167 123.5,171.833 123.5,172.5C 117.916,174.034 112.083,174.701 106,174.5C 101.118,174.446 96.2848,174.112 91.5,173.5C 91.5,172.833 91.5,172.167 91.5,171.5C 102.219,172.94 112.886,172.607 123.5,170.5 Z"/></g>
</svg>
