<?xml version="1.0" encoding="UTF-8"?>
<!DOCTYPE svg PUBLIC "-//W3C//DTD SVG 1.1//EN" "http://www.w3.org/Graphics/SVG/1.1/DTD/svg11.dtd">
<svg xmlns="http://www.w3.org/2000/svg" version="1.1" width="200px" height="200px" style="shape-rendering:geometricPrecision; text-rendering:geometricPrecision; image-rendering:optimizeQuality; fill-rule:evenodd; clip-rule:evenodd" xmlns:xlink="http://www.w3.org/1999/xlink">
<g><path style="opacity:0.633" fill="#c99720" d="M 78.5,20.5 C 121.479,17.977 150.812,36.6436 166.5,76.5C 165.675,77.3857 164.675,77.719 163.5,77.5C 151.595,42.9558 127.262,24.6225 90.5,22.5C 66.4006,23.2183 46.4006,32.5516 30.5,50.5C 30.1667,50.1667 29.8333,49.8333 29.5,49.5C 38.8118,37.3774 50.8118,28.8774 65.5,24C 69.9989,22.961 74.3323,21.7943 78.5,20.5 Z"/></g>
<g><path style="opacity:0.481" fill="#c99720" d="M 84.5,24.5 C 122.775,24.2913 148.775,41.958 162.5,77.5C 161.726,78.7112 160.893,78.7112 160,77.5C 148.144,45.3022 124.977,28.3022 90.5,26.5C 68.0828,27.2962 49.4161,35.9628 34.5,52.5C 33.479,51.9984 33.3123,51.3317 34,50.5C 47.6919,35.5716 64.5253,26.9049 84.5,24.5 Z"/></g>
<g><path style="opacity:0.814" fill="#272727" d="M 138.5,98.5 C 139.167,98.5 139.5,98.1667 139.5,97.5C 140.167,97.5 140.5,97.1667 140.5,96.5C 141.167,96.5 141.5,96.1667 141.5,95.5C 142.833,95.1667 144.167,94.8333 145.5,94.5C 148.067,94.2785 150.401,93.6118 152.5,92.5C 161.618,92.1825 170.618,91.0158 179.5,89C 181.333,87.8333 183.167,86.6667 185,85.5C 185.507,86.9961 185.007,88.1627 183.5,89C 185.167,89.3333 186.833,89.6667 188.5,90C 188.167,90.3333 187.833,90.6667 187.5,91C 189.167,91.3333 190.833,91.6667 192.5,92C 192.167,92.3333 191.833,92.6667 191.5,93C 194.333,93.4462 196.999,92.9462 199.5,91.5C 199.5,93.1667 199.5,94.8333 199.5,96.5C 196.456,97.9684 193.456,99.6351 190.5,101.5C 183.979,102.999 177.812,104.666 172,106.5C 169.816,107.108 167.816,106.441 166,104.5C 164.602,105.051 163.268,105.384 162,105.5C 159.755,104.396 157.589,103.396 155.5,102.5C 155.167,101.167 154.833,101.167 154.5,102.5C 151.989,101.606 149.489,100.606 147,99.5C 144.578,99.9544 142.078,100.121 139.5,100C 137.032,102.228 135.865,105.062 136,108.5C 130.481,111.151 124.981,110.984 119.5,108C 117.167,106.757 116.5,105.091 117.5,103C 120.514,102.872 123.514,102.872 126.5,103C 123.488,102.22 120.655,101.053 118,99.5C 114.799,103.036 111.299,106.203 107.5,109C 97.8457,113.287 92.0124,110.454 90,100.5C 84.6115,109.117 77.1115,111.95 67.5,109C 65.2625,106.97 63.7625,104.47 63,101.5C 60.5535,105.784 57.0535,108.784 52.5,110.5C 47.3464,109.177 44.513,105.844 44,100.5C 41.1737,105.333 37.1737,108.667 32,110.5C 30.3732,110.375 28.8732,109.875 27.5,109C 26.3305,106.815 25.1638,104.649 24,102.5C 20.1177,104.85 15.951,106.517 11.5,107.5C 16.3006,115.996 17.8006,124.996 16,134.5C 12.5153,136.962 9.51527,136.296 7,132.5C 1.1197,120.694 -1.04697,108.194 0.5,95C -0.725322,79.1856 1.77468,64.0189 8,49.5C 12.6138,43.8287 16.6138,44.162 20,50.5C 22.4639,68.6426 18.6305,85.3093 8.5,100.5C 8.81777,101.647 9.48444,102.481 10.5,103C 14.342,103.458 18.0087,102.791 21.5,101C 25.2026,97.6325 28.536,93.9658 31.5,90C 36.0808,86.9393 40.7475,86.7726 45.5,89.5C 46.5,88.8333 47.5,88.1667 48.5,87.5C 49.5,88.1667 50.5,88.8333 51.5,89.5C 51.1469,95.5773 51.6469,101.577 53,107.5C 55.172,106.415 57.172,105.081 59,103.5C 62.4676,98.0659 66.301,92.8992 70.5,88C 74.5,86 78.5,86 82.5,88C 86.2655,91.0247 86.2655,93.858 82.5,96.5C 77.467,92.05 73.6336,93.05 71,99.5C 70.2419,101.769 70.4086,103.936 71.5,106C 79.4014,107.135 85.5681,104.302 90,97.5C 92.9135,88.9652 98.7469,85.4652 107.5,87C 112.833,91 112.833,95 107.5,99C 104.118,99.1764 100.785,99.6764 97.5,100.5C 96.3904,102.496 96.7237,104.329 98.5,106C 101.964,106.817 105.298,106.483 108.5,105C 111.463,103.039 114.129,100.706 116.5,98C 114.952,92.8238 116.952,89.4905 122.5,88C 126.505,86.9019 130.005,87.7352 133,90.5C 133.746,93.7894 132.58,96.2894 129.5,98C 132.575,100.794 135.575,100.96 138.5,98.5 Z M 8.5,92.5 C 8.19018,81.743 9.02352,71.0763 11,60.5C 14.0252,48.7149 16.5252,48.7149 18.5,60.5C 17.612,72.0872 14.2787,82.7539 8.5,92.5 Z M 144.5,92.5 C 145.5,92.5 146.5,92.5 147.5,92.5C 146.833,93.1667 146.167,93.8333 145.5,94.5C 144.167,94.8333 142.833,95.1667 141.5,95.5C 142.306,94.2719 143.306,93.2719 144.5,92.5 Z M 102.5,93.5 C 103.552,93.3505 104.552,93.5172 105.5,94C 103.835,95.8401 101.835,96.5068 99.5,96C 100.571,95.1482 101.571,94.3149 102.5,93.5 Z M 125.5,93.5 C 130.376,94.0817 130.043,95.0817 124.5,96.5C 124.167,96.3333 123.833,96.1667 123.5,96C 124.381,95.2917 125.047,94.4584 125.5,93.5 Z M 39.5,94.5 C 41.4286,94.2308 43.0953,94.7308 44.5,96C 41.2759,99.7274 37.6092,102.894 33.5,105.5C 32.432,103.813 32.5986,102.146 34,100.5C 35.3597,97.9774 37.193,95.9774 39.5,94.5 Z M 8.5,109.5 C 11.8884,116.015 13.3884,123.015 13,130.5C 12.0853,129.672 11.4186,128.672 11,127.5C 9.71011,121.554 8.87678,115.554 8.5,109.5 Z"/></g>
<g><path style="opacity:0.639" fill="#cc9925" d="M 182.5,84.5 C 181.5,83.5 180.5,82.5 179.5,81.5C 183.745,79.3651 187.745,76.6984 191.5,73.5C 190.577,78.4645 187.577,82.1311 182.5,84.5 Z"/></g>
<g><path style="opacity:1" fill="#dcae40" d="M 176.5,82.5 C 177.209,81.596 178.209,81.2627 179.5,81.5C 180.5,82.5 181.5,83.5 182.5,84.5C 181.341,86.2503 179.674,87.2503 177.5,87.5C 177.784,85.5853 177.451,83.9187 176.5,82.5 Z"/></g>
<g><path style="opacity:1" fill="#e3b953" d="M 174.5,82.5 C 175.167,82.5 175.833,82.5 176.5,82.5C 177.451,83.9187 177.784,85.5853 177.5,87.5C 176.791,88.404 175.791,88.7373 174.5,88.5C 174.5,86.5 174.5,84.5 174.5,82.5 Z"/></g>
<g><path style="opacity:1" fill="#ecc66b" d="M 174.5,82.5 C 174.5,84.5 174.5,86.5 174.5,88.5C 174.167,88.5 173.833,88.5 173.5,88.5C 172.167,88.5 170.833,88.5 169.5,88.5C 169.5,86.8333 169.5,85.1667 169.5,83.5C 171.117,82.962 172.784,82.6287 174.5,82.5 Z"/></g>
<g><path style="opacity:1" fill="#f8d883" d="M 169.5,83.5 C 169.5,85.1667 169.5,86.8333 169.5,88.5C 170.833,88.5 172.167,88.5 173.5,88.5C 168.432,90.1776 163.098,90.8443 157.5,90.5C 157.5,88.5 157.5,86.5 157.5,84.5C 161.434,83.6403 165.434,83.307 169.5,83.5 Z"/></g>
<g><path style="opacity:0.912" fill="#dcac3c" d="M 151.5,85.5 C 151.5,87.1667 151.5,88.8333 151.5,90.5C 150.005,90.9887 148.671,91.6554 147.5,92.5C 146.5,92.5 145.5,92.5 144.5,92.5C 145.968,91.2209 146.635,89.5542 146.5,87.5C 148.05,86.5592 149.716,85.8925 151.5,85.5 Z"/></g>
<g><path style="opacity:1" fill="#ecc666" d="M 157.5,84.5 C 157.5,86.5 157.5,88.5 157.5,90.5C 155.5,90.5 153.5,90.5 151.5,90.5C 151.5,88.8333 151.5,87.1667 151.5,85.5C 153.435,84.8505 155.435,84.5172 157.5,84.5 Z"/></g>
<g><path style="opacity:0.669" fill="#d19c23" d="M 146.5,87.5 C 146.635,89.5542 145.968,91.2209 144.5,92.5C 143.306,93.2719 142.306,94.2719 141.5,95.5C 140.833,95.5 140.5,95.8333 140.5,96.5C 139.833,96.5 139.5,96.8333 139.5,97.5C 138.833,97.5 138.5,97.8333 138.5,98.5C 137.448,98.6495 136.448,98.4828 135.5,98C 138.377,93.6215 142.044,90.1215 146.5,87.5 Z"/></g>
<g><path style="opacity:0.941" fill="#171b26" d="M 147.5,92.5 C 149.167,92.5 150.833,92.5 152.5,92.5C 150.401,93.6118 148.067,94.2785 145.5,94.5C 146.167,93.8333 146.833,93.1667 147.5,92.5 Z"/></g>
<g><path style="opacity:0.012" fill="#272827" d="M 154.5,102.5 C 154.833,102.5 155.167,102.5 155.5,102.5C 155.315,103.17 154.981,103.17 154.5,102.5 Z"/></g>
<g><path style="opacity:0.492" fill="#c99720" d="M 162.5,110.5 C 163.649,110.791 164.316,111.624 164.5,113C 152.934,155.797 124.934,176.13 80.5,174C 57.6305,170.264 39.9639,158.764 27.5,139.5C 28.1667,138.167 28.8333,138.167 29.5,139.5C 49.7485,167.089 76.7485,177.256 110.5,170C 139.776,160.56 157.11,140.726 162.5,110.5 Z"/></g>
<g><path style="opacity:0.634" fill="#c99720" d="M 166.5,110.5 C 167.693,110.97 168.36,111.97 168.5,113.5C 160.715,148.452 139.381,169.952 104.5,178C 70.1733,182.496 43.1733,170.663 23.5,142.5C 24.0016,141.479 24.6683,141.312 25.5,142C 49.7916,173.983 81.125,183.65 119.5,171C 146.099,159.293 161.765,139.126 166.5,110.5 Z"/></g>
<g><path style="opacity:0.543" fill="#000000" d="M 34.5,120.5 C 35.9305,120.421 37.2638,120.754 38.5,121.5C 38.9555,123.893 39.2888,126.226 39.5,128.5C 37.9739,131.092 35.6405,132.092 32.5,131.5C 32.0357,127.498 32.7024,123.831 34.5,120.5 Z"/></g>
<g><path style="opacity:0.583" fill="#000000" d="M 48.5,120.5 C 50.4513,121.282 51.9513,122.616 53,124.5C 53.4152,122.709 54.4152,121.376 56,120.5C 54.9231,124.039 53.7564,127.706 52.5,131.5C 51.438,127.714 50.1046,124.048 48.5,120.5 Z"/></g>
<g><path style="opacity:0.567" fill="#000000" d="M 69.5,120.5 C 73.1467,120.813 75.1467,122.813 75.5,126.5C 71.6782,133.291 68.3449,133.124 65.5,126C 65.9009,123.44 67.2342,121.607 69.5,120.5 Z M 68.5,123.5 C 74.2607,123.87 74.5941,124.87 69.5,126.5C 70.376,127.251 71.376,127.751 72.5,128C 68.0774,129.081 66.7441,127.581 68.5,123.5 Z"/></g>
<g><path style="opacity:0.457" fill="#000000" d="M 86.5,120.5 C 87.8333,120.5 89.1667,120.5 90.5,120.5C 90.5,121.5 90.5,122.5 90.5,123.5C 85.1667,123.833 85.1667,124.167 90.5,124.5C 90.5,125.5 90.5,126.5 90.5,127.5C 85.1667,127.833 85.1667,128.167 90.5,128.5C 90.5,129.5 90.5,130.5 90.5,131.5C 88.5,131.5 86.5,131.5 84.5,131.5C 84.0357,127.498 84.7024,123.831 86.5,120.5 Z"/></g>
<g><path style="opacity:0.522" fill="#000000" d="M 99.5,121.5 C 101.942,121.354 102.609,122.187 101.5,124C 102.793,124.49 104.127,124.657 105.5,124.5C 105.281,123.325 105.614,122.325 106.5,121.5C 107.833,124.833 107.833,128.167 106.5,131.5C 105.571,130.311 105.238,128.978 105.5,127.5C 104.127,127.343 102.793,127.51 101.5,128C 102.337,129.011 102.67,130.178 102.5,131.5C 101.5,131.5 100.5,131.5 99.5,131.5C 99.5,128.167 99.5,124.833 99.5,121.5 Z"/></g>
<g><path style="opacity:0.708" fill="#000000" d="M 117.5,121.5 C 118.777,122.694 119.444,124.36 119.5,126.5C 119.167,128.167 118.833,129.833 118.5,131.5C 117.513,128.232 117.18,124.898 117.5,121.5 Z"/></g>
<g><path style="opacity:0.543" fill="#000000" d="M 131.5,121.5 C 132.675,121.281 133.675,121.614 134.5,122.5C 135.402,125.04 136.402,127.54 137.5,130C 137.167,130.5 136.833,131 136.5,131.5C 134.167,128.833 131.833,128.833 129.5,131.5C 129.167,131.167 128.833,130.833 128.5,130.5C 129.801,127.573 130.801,124.573 131.5,121.5 Z"/></g>
</svg>
