<?xml version="1.0" encoding="UTF-8"?>
<!DOCTYPE svg PUBLIC "-//W3C//DTD SVG 1.1//EN" "http://www.w3.org/Graphics/SVG/1.1/DTD/svg11.dtd">
<svg xmlns="http://www.w3.org/2000/svg" version="1.1" width="200px" height="200px" style="shape-rendering:geometricPrecision; text-rendering:geometricPrecision; image-rendering:optimizeQuality; fill-rule:evenodd; clip-rule:evenodd" xmlns:xlink="http://www.w3.org/1999/xlink">
<g><path style="opacity:0.578" fill="#662c8e" d="M 78.5,57.5 C 80.4646,57.9483 80.7979,58.9483 79.5,60.5C 78.6143,59.675 78.281,58.675 78.5,57.5 Z"/></g>
<g><path style="opacity:0.548" fill="#662c8e" d="M 71.5,59.5 C 72.9953,59.4148 73.9953,60.0815 74.5,61.5C 72.6043,62.6394 71.6043,61.9728 71.5,59.5 Z"/></g>
<g><path style="opacity:0.488" fill="#662c8e" d="M 87.5,59.5 C 88.8672,61.0927 88.5339,62.4261 86.5,63.5C 86.1667,63.1667 85.8333,62.8333 85.5,62.5C 86.1925,61.4822 86.8592,60.4822 87.5,59.5 Z"/></g>
<g><path style="opacity:0.345" fill="#414196" d="M 83.5,64.5 C 80.8127,64.3359 78.146,64.5026 75.5,65C 74.7476,65.6708 74.4142,66.5041 74.5,67.5C 74.1667,67.5 73.8333,67.5 73.5,67.5C 73.33,66.1779 73.6634,65.0113 74.5,64C 76.1012,63.7266 77.6012,63.2266 79,62.5C 80.6225,63.0989 82.1225,63.7656 83.5,64.5 Z"/></g>
<g><path style="opacity:0.928" fill="#565859" d="M 175.5,63.5 C 179.767,63.203 183.934,63.5363 188,64.5C 188.667,82.8333 188.667,101.167 188,119.5C 184.591,120.622 181.091,120.789 177.5,120C 176.299,119.097 175.465,117.931 175,116.5C 167.991,122.645 160.491,123.145 152.5,118C 141.517,108.33 139.683,97.1636 147,84.5C 154.734,75.1421 163.734,73.4755 174,79.5C 174.215,74.0849 174.715,68.7516 175.5,63.5 Z M 161.5,88.5 C 171.474,87.3083 175.974,91.6416 175,101.5C 173.628,106.527 170.295,108.86 165,108.5C 162.186,108.592 159.853,107.592 158,105.5C 156.48,101.625 156.146,97.6251 157,93.5C 158.025,91.313 159.525,89.6464 161.5,88.5 Z"/></g>
<g><path style="opacity:0.522" fill="#682c8e" d="M 71.5,67.5 C 70.0222,67.762 68.6888,67.4287 67.5,66.5C 68.1667,66.1667 68.8333,65.8333 69.5,65.5C 70.7133,65.7472 71.38,66.4138 71.5,67.5 Z"/></g>
<g><path style="opacity:1" fill="#cc4979" d="M 83.5,64.5 C 84.1667,64.5 84.5,64.8333 84.5,65.5C 84.2786,66.7348 83.6119,67.7348 82.5,68.5C 82.9569,69.2975 83.6236,69.6309 84.5,69.5C 84.0133,70.4734 83.5133,71.4734 83,72.5C 81.1601,70.5464 80.3268,68.5464 80.5,66.5C 78.0428,68.0009 78.0428,69.6676 80.5,71.5C 78.6778,71.4626 76.6778,71.796 74.5,72.5C 74.1961,71.8501 73.8627,71.1835 73.5,70.5C 74.2003,70.2129 74.8669,69.8795 75.5,69.5C 76.7574,68.3774 76.4241,67.7107 74.5,67.5C 74.4142,66.5041 74.7476,65.6708 75.5,65C 78.146,64.5026 80.8127,64.3359 83.5,64.5 Z"/></g>
<g><path style="opacity:0.919" fill="#565859" d="M 15.5,68.5 C 19.5138,68.3345 23.5138,68.5012 27.5,69C 28,69.5 28.5,70 29,70.5C 31.9961,80.1558 34.9961,89.8225 38,99.5C 41.1549,89.8799 44.1549,80.2133 47,70.5C 52.3333,67.8333 57.6667,67.8333 63,70.5C 64.5797,86.5517 66.4131,102.552 68.5,118.5C 68.2907,119.086 67.9574,119.586 67.5,120C 63.1794,120.499 58.8461,120.666 54.5,120.5C 53.6615,112.46 52.4948,104.46 51,96.5C 48.8816,104.48 46.3816,112.313 43.5,120C 39.577,120.793 35.7436,120.626 32,119.5C 29.6667,111.833 27.3333,104.167 25,96.5C 23.8541,104.146 22.8541,111.813 22,119.5C 17.5986,120.467 13.0986,120.8 8.5,120.5C 9.66909,104.475 11.1691,88.4753 13,72.5C 13.4796,70.867 14.3129,69.5336 15.5,68.5 Z"/></g>
<g><path style="opacity:1" fill="#f24870" d="M 84.5,69.5 C 85.209,68.596 86.209,68.2627 87.5,68.5C 87.5,69.8333 87.5,71.1667 87.5,72.5C 85.4508,72.2942 85.1175,71.4609 86.5,70C 85.9056,69.5357 85.2389,69.369 84.5,69.5 Z"/></g>
<g><path style="opacity:0.608" fill="#613b8f" d="M 84.5,65.5 C 85.4584,65.9528 86.2917,66.6195 87,67.5C 88.4936,66.2528 89.9936,66.2528 91.5,67.5C 89.3105,69.01 87.9772,71.01 87.5,73.5C 87.5,73.1667 87.5,72.8333 87.5,72.5C 87.5,71.1667 87.5,69.8333 87.5,68.5C 86.209,68.2627 85.209,68.596 84.5,69.5C 83.6236,69.6309 82.9569,69.2975 82.5,68.5C 83.6119,67.7348 84.2786,66.7348 84.5,65.5 Z"/></g>
<g><path style="opacity:0.992" fill="#924f8c" d="M 84.5,69.5 C 85.2389,69.369 85.9056,69.5357 86.5,70C 85.1175,71.4609 85.4508,72.2942 87.5,72.5C 87.5,72.8333 87.5,73.1667 87.5,73.5C 82.5,73.5 77.5,73.5 72.5,73.5C 70.195,71.9555 69.8617,69.9555 71.5,67.5C 72.1667,67.5 72.8333,67.5 73.5,67.5C 73.8333,67.5 74.1667,67.5 74.5,67.5C 76.4241,67.7107 76.7574,68.3774 75.5,69.5C 74.791,68.596 73.791,68.2627 72.5,68.5C 72.1568,70.4832 72.8235,71.8166 74.5,72.5C 76.6778,71.796 78.6778,71.4626 80.5,71.5C 78.0428,69.6676 78.0428,68.0009 80.5,66.5C 80.3268,68.5464 81.1601,70.5464 83,72.5C 83.5133,71.4734 84.0133,70.4734 84.5,69.5 Z"/></g>
<g><path style="opacity:1" fill="#f4496f" d="M 75.5,69.5 C 74.8669,69.8795 74.2003,70.2129 73.5,70.5C 73.8627,71.1835 74.1961,71.8501 74.5,72.5C 72.8235,71.8166 72.1568,70.4832 72.5,68.5C 73.791,68.2627 74.791,68.596 75.5,69.5 Z"/></g>
<g><path style="opacity:1" fill="#e4eceb" d="M 72.5,73.5 C 77.5,73.5 82.5,73.5 87.5,73.5C 87.5,74.5 87.5,75.5 87.5,76.5C 82.5,76.5 77.5,76.5 72.5,76.5C 72.5,75.5 72.5,74.5 72.5,73.5 Z"/></g>
<g><path style="opacity:0.896" fill="#565859" d="M 115.5,75.5 C 126.6,74.7899 133.433,79.7899 136,90.5C 136.818,100.411 136.651,110.244 135.5,120C 131.245,120.796 127.079,120.629 123,119.5C 122.667,110.833 122.333,102.167 122,93.5C 118.14,87.4104 113.807,87.0771 109,92.5C 108.667,101.5 108.333,110.5 108,119.5C 103.921,120.629 99.7548,120.796 95.5,120C 94.8742,119.25 94.3742,118.416 94,117.5C 93.3333,104.5 93.3333,91.5 94,78.5C 97.1831,76.4766 100.683,75.9766 104.5,77C 105.227,78.3988 105.727,79.8988 106,81.5C 108.619,78.4798 111.786,76.4798 115.5,75.5 Z"/></g>
<g><path style="opacity:0.894" fill="#5b5c5e" d="M 72.5,76.5 C 77.5,76.5 82.5,76.5 87.5,76.5C 87.5,76.8333 87.5,77.1667 87.5,77.5C 86.1667,77.5 84.8333,77.5 83.5,77.5C 81.1667,77.5 78.8333,77.5 76.5,77.5C 76.1736,86.3494 76.507,95.0161 77.5,103.5C 75.9405,103.65 74.2739,103.983 72.5,104.5C 72.5,95.1667 72.5,85.8333 72.5,76.5 Z"/></g>
<g><path style="opacity:1" fill="#3e3d3f" d="M 83.5,77.5 C 82.6979,85.4218 82.1979,93.4218 82,101.5C 80.6976,102.085 79.531,102.751 78.5,103.5C 78.1667,103.5 77.8333,103.5 77.5,103.5C 76.507,95.0161 76.1736,86.3494 76.5,77.5C 78.8333,77.5 81.1667,77.5 83.5,77.5 Z"/></g>
<g><path style="opacity:1" fill="#545557" d="M 83.5,77.5 C 84.8333,77.5 86.1667,77.5 87.5,77.5C 87.5,86.5 87.5,95.5 87.5,104.5C 84.5455,104.677 81.5455,104.344 78.5,103.5C 79.531,102.751 80.6976,102.085 82,101.5C 82.1979,93.4218 82.6979,85.4218 83.5,77.5 Z"/></g>
<g><path style="opacity:0.996" fill="#f1c996" d="M 77.5,103.5 C 77.8333,103.5 78.1667,103.5 78.5,103.5C 81.5455,104.344 84.5455,104.677 87.5,104.5C 86.0698,108.354 84.4031,112.021 82.5,115.5C 81.0813,114.549 79.4147,114.216 77.5,114.5C 75.0875,111.632 73.4208,108.299 72.5,104.5C 74.2739,103.983 75.9405,103.65 77.5,103.5 Z"/></g>
<g><path style="opacity:1" fill="#473d33" d="M 77.5,114.5 C 79.4147,114.216 81.0813,114.549 82.5,115.5C 80.4206,121.997 78.7539,121.664 77.5,114.5 Z"/></g>
<g><path style="opacity:0.715" fill="#652d8f" d="M 8.5,129.5 C 12.8492,128.577 16.1825,129.91 18.5,133.5C 17.233,135.88 17.5663,138.046 19.5,140C 18.8993,141.605 17.8993,142.938 16.5,144C 13.854,144.497 11.1873,144.664 8.5,144.5C 8.5,139.5 8.5,134.5 8.5,129.5 Z M 12.5,133.5 C 15.0009,133.511 15.1676,134.178 13,135.5C 12.5357,134.906 12.369,134.239 12.5,133.5 Z M 12.5,138.5 C 16.0507,139.186 16.2173,140.186 13,141.5C 12.5172,140.552 12.3505,139.552 12.5,138.5 Z"/></g>
<g><path style="opacity:0.675" fill="#652d8f" d="M 32.5,129.5 C 33.8333,129.5 35.1667,129.5 36.5,129.5C 36.335,132.85 36.5017,136.183 37,139.5C 38.0113,140.337 39.1779,140.67 40.5,140.5C 40.5,136.833 40.5,133.167 40.5,129.5C 41.8333,129.5 43.1667,129.5 44.5,129.5C 44.6657,133.846 44.499,138.179 44,142.5C 39.4905,145.695 35.8238,145.028 33,140.5C 32.5014,136.848 32.3347,133.182 32.5,129.5 Z"/></g>
<g><path style="opacity:0.724" fill="#652d8f" d="M 59.5,129.5 C 61.8568,129.337 64.1902,129.503 66.5,130C 69.9867,132.451 70.3201,135.284 67.5,138.5C 68.2485,140.332 69.2485,141.999 70.5,143.5C 69.277,144.614 67.9437,144.781 66.5,144C 64.3323,139.301 63.3323,139.468 63.5,144.5C 62.1667,144.5 60.8333,144.5 59.5,144.5C 59.5,139.5 59.5,134.5 59.5,129.5 Z M 63.5,133.5 C 65.337,133.639 65.6704,134.306 64.5,135.5C 63.7025,135.043 63.3691,134.376 63.5,133.5 Z"/></g>
<g><path style="opacity:0.688" fill="#652d8f" d="M 87.5,129.5 C 89.8273,129.247 91.8273,129.914 93.5,131.5C 92.286,133.069 90.6193,133.902 88.5,134C 91.4236,135.119 93.4236,137.119 94.5,140C 91.8944,144.957 88.2277,145.79 83.5,142.5C 85.0803,139.371 87.4137,138.537 90.5,140C 88.7513,138.708 86.918,137.542 85,136.5C 83.9164,133.341 84.7498,131.008 87.5,129.5 Z"/></g>
<g><path style="opacity:0.702" fill="#652d8f" d="M 107.5,129.5 C 110.833,129.5 114.167,129.5 117.5,129.5C 117.5,130.833 117.5,132.167 117.5,133.5C 116.5,133.5 115.5,133.5 114.5,133.5C 114.5,137.167 114.5,140.833 114.5,144.5C 113.167,144.5 111.833,144.5 110.5,144.5C 110.5,140.833 110.5,137.167 110.5,133.5C 109.5,133.5 108.5,133.5 107.5,133.5C 107.5,132.167 107.5,130.833 107.5,129.5 Z"/></g>
<g><path style="opacity:0.67" fill="#652d8f" d="M 131.5,129.5 C 134.5,129.5 137.5,129.5 140.5,129.5C 140.5,130.833 140.5,132.167 140.5,133.5C 133.833,134.167 133.833,134.833 140.5,135.5C 140.5,136.833 140.5,138.167 140.5,139.5C 133.833,139.833 133.833,140.167 140.5,140.5C 140.5,141.833 140.5,143.167 140.5,144.5C 137.5,144.5 134.5,144.5 131.5,144.5C 131.5,139.5 131.5,134.5 131.5,129.5 Z"/></g>
<g><path style="opacity:0.713" fill="#652d8f" d="M 154.5,129.5 C 157.93,129.107 161.096,129.773 164,131.5C 164.782,134.257 164.282,136.757 162.5,139C 163.376,140.586 164.376,142.086 165.5,143.5C 164.277,144.614 162.944,144.781 161.5,144C 159.332,139.301 158.332,139.468 158.5,144.5C 157.167,144.5 155.833,144.5 154.5,144.5C 154.5,139.5 154.5,134.5 154.5,129.5 Z M 158.5,133.5 C 160.337,133.639 160.67,134.306 159.5,135.5C 158.702,135.043 158.369,134.376 158.5,133.5 Z"/></g>
<g><path style="opacity:0.705" fill="#652d8f" d="M 182.5,129.5 C 184.827,129.247 186.827,129.914 188.5,131.5C 187.286,133.069 185.619,133.902 183.5,134C 188.115,135.124 189.615,137.957 188,142.5C 184.985,145.229 182.152,145.063 179.5,142C 179.613,140.72 180.28,139.887 181.5,139.5C 182.768,140.428 184.101,140.595 185.5,140C 183.751,138.708 181.918,137.542 180,136.5C 178.916,133.341 179.75,131.008 182.5,129.5 Z"/></g>
</svg>
