<?xml version="1.0" encoding="UTF-8"?>
<!DOCTYPE svg PUBLIC "-//W3C//DTD SVG 1.1//EN" "http://www.w3.org/Graphics/SVG/1.1/DTD/svg11.dtd">
<svg xmlns="http://www.w3.org/2000/svg" version="1.1" width="200px" height="200px" style="shape-rendering:geometricPrecision; text-rendering:geometricPrecision; image-rendering:optimizeQuality; fill-rule:evenodd; clip-rule:evenodd" xmlns:xlink="http://www.w3.org/1999/xlink">
<g><path style="opacity:0.996" fill="#4f7c96" d="M 99.5,9.5 C 93.395,10.9965 87.0616,11.6631 80.5,11.5C 86.5843,9.82278 92.9176,9.15611 99.5,9.5 Z"/></g>
<g><path style="opacity:0.878" fill="#6890a4" d="M 102.5,9.5 C 107.071,9.97688 111.404,10.9769 115.5,12.5C 110.813,12.4492 106.479,11.4492 102.5,9.5 Z"/></g>
<g><path style="opacity:1" fill="#186897" d="M 99.5,9.5 C 100.5,9.5 101.5,9.5 102.5,9.5C 106.479,11.4492 110.813,12.4492 115.5,12.5C 132.972,16.8039 147.139,26.1373 158,40.5C 160.112,43.7271 161.945,47.0604 163.5,50.5C 163.427,52.0269 164.094,53.0269 165.5,53.5C 169.532,60.6241 171.866,68.2907 172.5,76.5C 172.465,87.9508 171.465,99.2841 169.5,110.5C 167.501,119.663 163.501,127.83 157.5,135C 166.051,137.759 173.718,141.926 180.5,147.5C 180.306,149.912 178.973,150.912 176.5,150.5C 170.558,148.297 164.558,146.297 158.5,144.5C 156.162,142.96 153.495,142.294 150.5,142.5C 143.472,141.606 136.472,140.606 129.5,139.5C 129.5,139.167 129.5,138.833 129.5,138.5C 145.672,127.505 154.672,112.172 156.5,92.5C 157.163,90.3587 157.497,88.0254 157.5,85.5C 157.685,81.8589 157.019,78.5256 155.5,75.5C 152.563,61.9135 145.896,50.5802 135.5,41.5C 138.492,42.0104 141.492,41.3438 144.5,39.5C 141.907,34.2419 138.241,29.9086 133.5,26.5C 118.541,15.8709 101.874,12.0376 83.5,15C 78.2795,16.3828 73.2795,18.2161 68.5,20.5C 60.7248,23.6015 54.3914,28.6015 49.5,35.5C 45.147,40.8671 41.8136,46.8671 39.5,53.5C 40.8532,54.5237 41.5198,55.857 41.5,57.5C 32.4072,77.3178 32.2406,97.3178 41,117.5C 46.0687,126.736 53.2354,133.736 62.5,138.5C 62.1788,140.048 61.1788,140.715 59.5,140.5C 55.4526,140.695 51.4526,140.362 47.5,139.5C 44.9365,139.737 44.9365,140.237 47.5,141C 46.0577,141.377 45.0577,142.21 44.5,143.5C 42.0948,144.768 39.4282,145.435 36.5,145.5C 35.0695,145.579 33.7362,145.246 32.5,144.5C 29.3143,146.228 25.981,147.561 22.5,148.5C 22.4326,147.041 22.7659,145.708 23.5,144.5C 26.9328,141.941 30.5995,139.608 34.5,137.5C 27.7418,129.234 23.0751,119.9 20.5,109.5C 20.6621,107.473 20.4955,105.473 20,103.5C 19.6174,102.944 19.1174,102.611 18.5,102.5C 15.8772,92.4953 15.8772,82.4953 18.5,72.5C 19.9238,70.4855 20.5905,68.1522 20.5,65.5C 30.1112,35.8858 50.1112,17.8858 80.5,11.5C 87.0616,11.6631 93.395,10.9965 99.5,9.5 Z M 127.5,83.5 C 127.5,84.5 127.5,85.5 127.5,86.5C 127.158,87.3382 126.492,87.6716 125.5,87.5C 125.5,86.8333 125.5,86.1667 125.5,85.5C 125.833,84.5 126.5,83.8333 127.5,83.5 Z"/></g>
<g><path style="opacity:1" fill="#3381ab" d="M 133.5,26.5 C 138.241,29.9086 141.907,34.2419 144.5,39.5C 141.492,41.3438 138.492,42.0104 135.5,41.5C 131.973,38.5766 128.306,35.91 124.5,33.5C 123.073,31.0997 123.573,30.433 126,31.5C 128.333,30.5 130,28.8333 131,26.5C 131.977,27.7736 132.811,27.7736 133.5,26.5 Z"/></g>
<g><path style="opacity:1" fill="#3a84ac" d="M 68.5,20.5 C 72.1035,22.6404 75.7701,24.807 79.5,27C 77.563,27.1216 76.2297,27.955 75.5,29.5C 66.5188,32.9874 58.5188,37.9874 51.5,44.5C 51.5,43.1667 51.5,41.8333 51.5,40.5C 52.675,40.719 53.675,40.3857 54.5,39.5C 52.7988,38.1653 51.1321,36.832 49.5,35.5C 54.3914,28.6015 60.7248,23.6015 68.5,20.5 Z"/></g>
<g><path style="opacity:1" fill="#5b99bb" d="M 133.5,26.5 C 132.811,27.7736 131.977,27.7736 131,26.5C 130,28.8333 128.333,30.5 126,31.5C 123.573,30.433 123.073,31.0997 124.5,33.5C 108.685,26.0099 92.3519,24.6766 75.5,29.5C 76.2297,27.955 77.563,27.1216 79.5,27C 75.7701,24.807 72.1035,22.6404 68.5,20.5C 73.2795,18.2161 78.2795,16.3828 83.5,15C 101.874,12.0376 118.541,15.8709 133.5,26.5 Z"/></g>
<g><path style="opacity:1" fill="#2375a3" d="M 49.5,35.5 C 51.1321,36.832 52.7988,38.1653 54.5,39.5C 53.675,40.3857 52.675,40.719 51.5,40.5C 51.5,41.8333 51.5,43.1667 51.5,44.5C 48.1357,48.8574 44.8024,53.1907 41.5,57.5C 41.5198,55.857 40.8532,54.5237 39.5,53.5C 41.8136,46.8671 45.147,40.8671 49.5,35.5 Z"/></g>
<g><path style="opacity:0.459" fill="#8aa9b6" d="M 163.5,50.5 C 164.906,50.9731 165.573,51.9731 165.5,53.5C 164.094,53.0269 163.427,52.0269 163.5,50.5 Z"/></g>
<g><path style="opacity:0.612" fill="#7095a6" d="M 20.5,65.5 C 20.5905,68.1522 19.9238,70.4855 18.5,72.5C 18.4095,69.8478 19.0762,67.5145 20.5,65.5 Z"/></g>
<g><path style="opacity:1" fill="#45819b" d="M 155.5,75.5 C 157.019,78.5256 157.685,81.8589 157.5,85.5C 157.497,88.0254 157.163,90.3587 156.5,92.5C 156.625,86.7969 156.292,81.1302 155.5,75.5 Z"/></g>
<g><path style="opacity:1" fill="#edf4f4" d="M 124.5,33.5 C 128.306,35.91 131.973,38.5766 135.5,41.5C 145.896,50.5802 152.563,61.9135 155.5,75.5C 156.292,81.1302 156.625,86.7969 156.5,92.5C 154.672,112.172 145.672,127.505 129.5,138.5C 128.167,138.167 126.833,137.833 125.5,137.5C 125.5,136.833 125.5,136.167 125.5,135.5C 137.282,128.644 145.282,118.644 149.5,105.5C 146.601,101.803 142.767,100.136 138,100.5C 130.879,102.308 123.712,103.974 116.5,105.5C 110.219,103.307 103.719,101.973 97,101.5C 92,102.167 87,102.833 82,103.5C 76.3107,103.408 71.4774,101.242 67.5,97C 57.3431,94.5004 52.8431,98.3338 54,108.5C 56.2077,115.11 60.7077,117.276 67.5,115C 70.8932,113.645 73.8932,111.812 76.5,109.5C 76.8417,110.338 77.5084,110.672 78.5,110.5C 75.0695,113.726 71.0695,116.226 66.5,118C 61.4996,120.586 56.1663,122.253 50.5,123C 52.7193,126.045 55.7193,127.211 59.5,126.5C 59.5,126.833 59.5,127.167 59.5,127.5C 58.5266,127.987 57.5266,128.487 56.5,129C 59.0625,131.733 61.7291,134.233 64.5,136.5C 64.1667,137.5 63.5,138.167 62.5,138.5C 53.2354,133.736 46.0687,126.736 41,117.5C 32.2406,97.3178 32.4072,77.3178 41.5,57.5C 44.8024,53.1907 48.1357,48.8574 51.5,44.5C 58.5188,37.9874 66.5188,32.9874 75.5,29.5C 92.3519,24.6766 108.685,26.0099 124.5,33.5 Z M 127.5,83.5 C 127.5,84.5 127.5,85.5 127.5,86.5C 127.158,87.3382 126.492,87.6716 125.5,87.5C 125.5,86.8333 125.5,86.1667 125.5,85.5C 125.833,84.5 126.5,83.8333 127.5,83.5 Z"/></g>
<g><path style="opacity:1" fill="#86c0c8" d="M 125.5,85.5 C 125.5,86.1667 125.5,86.8333 125.5,87.5C 127.036,92.0549 129.702,95.8883 133.5,99C 127.588,101.069 121.588,102.903 115.5,104.5C 115.751,98.3333 113.751,93 109.5,88.5C 110.64,86.9222 111.14,85.2555 111,83.5C 106.207,92.2972 99.0402,98.1305 89.5,101C 87,101.5 84.5,102 82,102.5C 77.0083,100.832 72.5083,98.3317 68.5,95C 56.2171,92.2935 50.3838,97.1269 51,109.5C 52.0014,112.173 53.5014,114.507 55.5,116.5C 54.011,118.84 51.8444,120.174 49,120.5C 40.0088,107.591 36.6754,93.2574 39,77.5C 44.6668,55.9935 57.8335,41.1601 78.5,33C 82.7786,31.7561 87.112,31.4228 91.5,32C 85.7673,35.9959 83.934,41.4959 86,48.5C 87.9464,51.1388 88.9464,54.1388 89,57.5C 93.0021,57.5613 95.8355,59.3946 97.5,63C 99.856,63.1554 102.189,63.1554 104.5,63C 106.169,71.0305 104.669,78.5305 100,85.5C 96.201,90.3006 92.0343,94.8006 87.5,99C 97.727,92.7955 104.227,83.6289 107,71.5C 108.31,66.5483 107.31,62.215 104,58.5C 99.8704,61.6051 96.7037,60.7718 94.5,56C 93.451,55.5078 92.451,55.6744 91.5,56.5C 91.0156,52.8738 89.8489,49.5404 88,46.5C 86.2607,36.4501 90.4273,32.2835 100.5,34C 102.587,34.7922 104.421,35.9588 106,37.5C 107.667,42.8333 109.333,48.1667 111,53.5C 116,57.1667 120.333,61.5 124,66.5C 124.172,73.0133 124.672,79.3466 125.5,85.5 Z"/></g>
<g><path style="opacity:1" fill="#0e6596" d="M 127.5,86.5 C 127.5,85.5 127.5,84.5 127.5,83.5C 127.666,77.4908 127.499,71.4908 127,65.5C 126.333,64.1667 125.667,62.8333 125,61.5C 121.333,58.5 117.667,55.5 114,52.5C 111.14,48.6852 109.807,44.3519 110,39.5C 107.575,35.8655 104.408,33.0322 100.5,31C 132.75,35.4198 150.084,53.9198 152.5,86.5C 152.625,91.4877 151.958,96.321 150.5,101C 146.556,99.1135 142.223,98.1135 137.5,98C 133.555,94.5649 130.222,90.7315 127.5,86.5 Z"/></g>
<g><path style="opacity:1" fill="#648ca9" d="M 172.5,76.5 C 174.354,88.0625 173.354,99.3959 169.5,110.5C 171.465,99.2841 172.465,87.9508 172.5,76.5 Z"/></g>
<g><path style="opacity:1" fill="#0e6595" d="M 125.5,135.5 C 112.64,137.381 99.6399,138.047 86.5,137.5C 80.4908,137.666 74.4908,137.499 68.5,137C 69.7112,136.107 69.7112,135.274 68.5,134.5C 67.7348,135.612 66.7348,136.279 65.5,136.5C 65.1667,136.5 64.8333,136.5 64.5,136.5C 61.7291,134.233 59.0625,131.733 56.5,129C 57.5266,128.487 58.5266,127.987 59.5,127.5C 60.1667,127.5 60.8333,127.5 61.5,127.5C 62.4916,127.672 63.1583,127.338 63.5,126.5C 64.5,126.5 65.5,126.5 66.5,126.5C 67.4916,126.672 68.1583,126.338 68.5,125.5C 68.8333,125.5 69.1667,125.5 69.5,125.5C 76.1198,123.44 82.2864,120.44 88,116.5C 90.2891,119.968 93.4558,121.968 97.5,122.5C 103.564,119.634 109.897,117.634 116.5,116.5C 120.884,116.826 125.217,116.492 129.5,115.5C 128.311,114.571 126.978,114.238 125.5,114.5C 121.154,114.334 116.821,114.501 112.5,115C 107.818,116.881 102.985,118.381 98,119.5C 94.671,119.587 92.171,118.254 90.5,115.5C 92.244,113.25 94.244,111.083 96.5,109C 95.8333,108.333 95.1667,108.333 94.5,109C 92.6038,111.068 90.6038,112.901 88.5,114.5C 82.2586,118.12 75.9252,121.453 69.5,124.5C 68.8333,124.5 68.1667,124.5 67.5,124.5C 66.5084,124.328 65.8417,124.662 65.5,125.5C 64.8333,125.5 64.1667,125.5 63.5,125.5C 61.901,125.232 60.5676,125.566 59.5,126.5C 55.7193,127.211 52.7193,126.045 50.5,123C 56.1663,122.253 61.4996,120.586 66.5,118C 71.0695,116.226 75.0695,113.726 78.5,110.5C 80.4233,110.205 82.0899,109.372 83.5,108C 81.2433,108.437 78.91,108.937 76.5,109.5C 73.8932,111.812 70.8932,113.645 67.5,115C 60.7077,117.276 56.2077,115.11 54,108.5C 52.8431,98.3338 57.3431,94.5004 67.5,97C 71.4774,101.242 76.3107,103.408 82,103.5C 87,102.833 92,102.167 97,101.5C 103.719,101.973 110.219,103.307 116.5,105.5C 123.712,103.974 130.879,102.308 138,100.5C 142.767,100.136 146.601,101.803 149.5,105.5C 145.282,118.644 137.282,128.644 125.5,135.5 Z"/></g>
<g><path style="opacity:0.592" fill="#66929d" d="M 18.5,102.5 C 19.1174,102.611 19.6174,102.944 20,103.5C 20.4955,105.473 20.6621,107.473 20.5,109.5C 19.0762,107.485 18.4095,105.152 18.5,102.5 Z"/></g>
<g><path style="opacity:1" fill="#84bed3" d="M 78.5,110.5 C 77.5084,110.672 76.8417,110.338 76.5,109.5C 78.91,108.937 81.2433,108.437 83.5,108C 82.0899,109.372 80.4233,110.205 78.5,110.5 Z"/></g>
<g><path style="opacity:1" fill="#7cb4cf" d="M 90.5,115.5 C 89.8333,115.167 89.1667,114.833 88.5,114.5C 90.6038,112.901 92.6038,111.068 94.5,109C 95.1667,108.333 95.8333,108.333 96.5,109C 94.244,111.083 92.244,113.25 90.5,115.5 Z"/></g>
<g><path style="opacity:1" fill="#68a2b8" d="M 125.5,114.5 C 126.978,114.238 128.311,114.571 129.5,115.5C 125.217,116.492 120.884,116.826 116.5,116.5C 119.5,115.833 122.5,115.167 125.5,114.5 Z"/></g>
<g><path style="opacity:1" fill="#d6e9ed" d="M 88.5,114.5 C 89.1667,114.833 89.8333,115.167 90.5,115.5C 92.171,118.254 94.671,119.587 98,119.5C 102.985,118.381 107.818,116.881 112.5,115C 116.821,114.501 121.154,114.334 125.5,114.5C 122.5,115.167 119.5,115.833 116.5,116.5C 109.897,117.634 103.564,119.634 97.5,122.5C 93.4558,121.968 90.2891,119.968 88,116.5C 82.2864,120.44 76.1198,123.44 69.5,125.5C 69.5,125.167 69.5,124.833 69.5,124.5C 75.9252,121.453 82.2586,118.12 88.5,114.5 Z"/></g>
<g><path style="opacity:0.071" fill="#8ebbcc" d="M 65.5,125.5 C 65.8417,124.662 66.5084,124.328 67.5,124.5C 67.5,125.167 67.8333,125.5 68.5,125.5C 68.1583,126.338 67.4916,126.672 66.5,126.5C 66.5,125.833 66.1667,125.5 65.5,125.5 Z"/></g>
<g><path style="opacity:0.035" fill="#98c5ce" d="M 59.5,126.5 C 60.5676,125.566 61.901,125.232 63.5,125.5C 63.5,125.833 63.5,126.167 63.5,126.5C 63.1583,127.338 62.4916,127.672 61.5,127.5C 61.1583,126.662 60.4916,126.328 59.5,126.5 Z"/></g>
<g><path style="opacity:1" fill="#50809b" d="M 86.5,137.5 C 86.5,137.833 86.5,138.167 86.5,138.5C 81.9698,138.403 77.4698,138.736 73,139.5C 70.0437,139.432 67.5437,138.432 65.5,136.5C 66.7348,136.279 67.7348,135.612 68.5,134.5C 69.7112,135.274 69.7112,136.107 68.5,137C 74.4908,137.499 80.4908,137.666 86.5,137.5 Z"/></g>
<g><path style="opacity:0.027" fill="#668da6" d="M 125.5,135.5 C 125.5,136.167 125.5,136.833 125.5,137.5C 123.45,137.961 121.45,138.628 119.5,139.5C 108.552,138.522 97.5516,138.189 86.5,138.5C 86.5,138.167 86.5,137.833 86.5,137.5C 99.6399,138.047 112.64,137.381 125.5,135.5 Z"/></g>
<g><path style="opacity:1" fill="#477c9e" d="M 59.5,140.5 C 54.7093,141.942 49.7093,142.942 44.5,143.5C 45.0577,142.21 46.0577,141.377 47.5,141C 44.9365,140.237 44.9365,139.737 47.5,139.5C 51.4526,140.362 55.4526,140.695 59.5,140.5 Z"/></g>
<g><path style="opacity:0.008" fill="#2f5465" d="M 129.5,139.5 C 128.833,140.167 128.833,140.167 129.5,139.5 Z"/></g>
<g><path style="opacity:0.514" fill="#7398af" d="M 150.5,142.5 C 153.495,142.294 156.162,142.96 158.5,144.5C 155.572,144.435 152.905,143.768 150.5,142.5 Z"/></g>
<g><path style="opacity:0.942" fill="#9cc4ca" d="M 130.5,144.5 C 119.314,144.186 108.148,143.52 97,142.5C 80.4477,143.765 63.9477,145.432 47.5,147.5C 74.9927,141.139 102.659,140.139 130.5,144.5 Z"/></g>
<g><path style="opacity:1" fill="#467596" d="M 23.5,144.5 C 22.7659,145.708 22.4326,147.041 22.5,148.5C 25.981,147.561 29.3143,146.228 32.5,144.5C 33.7362,145.246 35.0695,145.579 36.5,145.5C 27.6795,148.279 19.1795,151.945 11,156.5C 13.5617,151.11 17.7283,147.11 23.5,144.5 Z"/></g>
<g><path style="opacity:1" fill="#c5dade" d="M 115.5,147.5 C 115.611,148.117 115.944,148.617 116.5,149C 122.762,149.033 128.762,149.866 134.5,151.5C 101.597,149.032 68.9304,150.699 36.5,156.5C 42.7976,154.676 49.1309,153.009 55.5,151.5C 64.8501,150.924 74.1834,150.091 83.5,149C 83.1667,148.667 82.8333,148.333 82.5,148C 93.495,147.5 104.495,147.333 115.5,147.5 Z"/></g>
<g><path style="opacity:1" fill="#87c1c8" d="M 130.5,144.5 C 156.133,145.376 179.133,153.376 199.5,168.5C 199.5,169.167 199.5,169.833 199.5,170.5C 191.475,165.984 183.142,162.318 174.5,159.5C 170.774,155.564 166.108,153.397 160.5,153C 145.649,149.981 130.649,148.148 115.5,147.5C 95.0394,145.666 74.706,146.666 54.5,150.5C 49.5107,151.222 44.5107,151.388 39.5,151C 42.2311,149.828 44.8978,148.661 47.5,147.5C 63.9477,145.432 80.4477,143.765 97,142.5C 108.148,143.52 119.314,144.186 130.5,144.5 Z"/></g>
<g><path style="opacity:1" fill="#add6dd" d="M 115.5,147.5 C 104.495,147.333 93.495,147.5 82.5,148C 82.8333,148.333 83.1667,148.667 83.5,149C 74.1834,150.091 64.8501,150.924 55.5,151.5C 54.8333,151.5 54.5,151.167 54.5,150.5C 74.706,146.666 95.0394,145.666 115.5,147.5 Z"/></g>
<g><path style="opacity:1" fill="#477392" d="M 180.5,147.5 C 183.764,149.094 186.431,151.427 188.5,154.5C 188,154.833 187.5,155.167 187,155.5C 183.348,153.922 179.848,152.255 176.5,150.5C 178.973,150.912 180.306,149.912 180.5,147.5 Z"/></g>
<g><path style="opacity:1" fill="#a9d1d8" d="M 115.5,147.5 C 130.649,148.148 145.649,149.981 160.5,153C 166.108,153.397 170.774,155.564 174.5,159.5C 161.268,156.187 147.934,153.52 134.5,151.5C 128.762,149.866 122.762,149.033 116.5,149C 115.944,148.617 115.611,148.117 115.5,147.5 Z"/></g>
<g><path style="opacity:0.51" fill="#678ea6" d="M 73.5,155.5 C 76.2869,154.523 79.2869,154.19 82.5,154.5C 82.5,155.5 82.5,156.5 82.5,157.5C 80.8333,157.5 79.1667,157.5 77.5,157.5C 78.6085,156.71 79.9419,156.21 81.5,156C 78.854,155.503 76.1873,155.336 73.5,155.5 Z"/></g>
<g><path style="opacity:1" fill="#035182" d="M 107.5,154.5 C 106.167,155.167 104.833,155.833 103.5,156.5C 102.506,157.999 102.506,159.666 103.5,161.5C 102.71,162.609 102.21,163.942 102,165.5C 101.501,161.848 101.335,158.182 101.5,154.5C 103.5,154.5 105.5,154.5 107.5,154.5 Z"/></g>
<g><path style="opacity:0.349" fill="#7fa1af" d="M 108.5,154.5 C 108.167,154.5 107.833,154.5 107.5,154.5C 105.5,154.5 103.5,154.5 101.5,154.5C 101.335,158.182 101.501,161.848 102,165.5C 102.21,163.942 102.71,162.609 103.5,161.5C 103.5,163.167 103.5,164.833 103.5,166.5C 102.5,166.5 101.5,166.5 100.5,166.5C 100.5,162.167 100.5,157.833 100.5,153.5C 103.385,153.194 106.052,153.527 108.5,154.5 Z"/></g>
<g><path style="opacity:0.973" fill="#5c869d" d="M 67.5,167.5 C 66.5206,164.375 66.1872,161.042 66.5,157.5C 65.209,157.263 64.209,157.596 63.5,158.5C 62.2921,159.234 60.9587,159.567 59.5,159.5C 59.5,158.5 59.5,157.5 59.5,156.5C 63.1545,156.058 66.8212,155.724 70.5,155.5C 70.5,156.5 70.5,157.5 70.5,158.5C 69.5,158.5 68.5,158.5 67.5,158.5C 67.5,161.5 67.5,164.5 67.5,167.5 Z"/></g>
<g><path style="opacity:1" fill="#427494" d="M 107.5,154.5 C 107.833,154.5 108.167,154.5 108.5,154.5C 111.673,155.843 112.173,157.843 110,160.5C 107.959,161.423 105.792,161.756 103.5,161.5C 102.506,159.666 102.506,157.999 103.5,156.5C 104.833,155.833 106.167,155.167 107.5,154.5 Z M 103.5,156.5 C 105.429,156.231 107.095,156.731 108.5,158C 107.667,158.167 106.833,158.333 106,158.5C 104.624,158.316 103.791,157.649 103.5,156.5 Z"/></g>
<g><path style="opacity:0.957" fill="#477697" d="M 118.5,153.5 C 124.653,154.121 125.986,156.954 122.5,162C 123.861,163.584 124.528,165.418 124.5,167.5C 123.325,167.719 122.325,167.386 121.5,166.5C 118.794,160.242 117.127,160.242 116.5,166.5C 115.178,166.67 114.011,166.337 113,165.5C 112.938,161.852 113.105,158.185 113.5,154.5C 115.415,154.784 117.081,154.451 118.5,153.5 Z M 116.5,156.5 C 118.429,156.231 120.095,156.731 121.5,158C 120.667,158.167 119.833,158.333 119,158.5C 117.624,158.316 116.791,157.649 116.5,156.5 Z"/></g>
<g><path style="opacity:0.886" fill="#698da1" d="M 56.5,160.5 C 54.4816,159.067 52.8149,159.401 51.5,161.5C 52.6669,156.933 54.3336,156.599 56.5,160.5 Z"/></g>
<g><path style="opacity:1" fill="#075b8e" d="M 135.5,156.5 C 135.366,158.292 135.699,159.958 136.5,161.5C 134.952,161.821 134.285,162.821 134.5,164.5C 133.732,165.263 133.232,166.263 133,167.5C 132.833,166.833 132.667,166.167 132.5,165.5C 132.676,161.996 133.676,158.996 135.5,156.5 Z"/></g>
<g><path style="opacity:1" fill="#17597f" d="M 73.5,155.5 C 76.1873,155.336 78.854,155.503 81.5,156C 79.9419,156.21 78.6085,156.71 77.5,157.5C 76.1667,157.5 75.5,158.167 75.5,159.5C 77.2922,160.309 79.2922,160.809 81.5,161C 79.5273,161.495 77.5273,161.662 75.5,161.5C 75.238,162.978 75.5713,164.311 76.5,165.5C 77.1067,165.376 77.44,165.043 77.5,164.5C 78.1667,164.5 78.8333,164.5 79.5,164.5C 80.2625,165.268 81.2625,165.768 82.5,166C 79.8323,166.567 77.1656,167.067 74.5,167.5C 73.9791,163.519 73.6458,159.519 73.5,155.5 Z"/></g>
<g><path style="opacity:0.694" fill="#769bad" d="M 75.5,159.5 C 77.8333,159.5 80.1667,159.5 82.5,159.5C 82.5,160.5 82.5,161.5 82.5,162.5C 80.396,162.201 78.396,162.534 76.5,163.5C 76.6236,164.107 76.9569,164.44 77.5,164.5C 77.44,165.043 77.1067,165.376 76.5,165.5C 75.5713,164.311 75.238,162.978 75.5,161.5C 77.5273,161.662 79.5273,161.495 81.5,161C 79.2922,160.809 77.2922,160.309 75.5,159.5 Z"/></g>
<g><path style="opacity:1" fill="#98c5cb" d="M 47.5,147.5 C 44.8978,148.661 42.2311,149.828 39.5,151C 44.5107,151.388 49.5107,151.222 54.5,150.5C 54.5,151.167 54.8333,151.5 55.5,151.5C 49.1309,153.009 42.7976,154.676 36.5,156.5C 23.7974,159.96 11.464,164.627 -0.5,170.5C -0.5,169.833 -0.5,169.167 -0.5,168.5C 13.7194,157.641 29.7194,150.641 47.5,147.5 Z"/></g>
<g><path style="opacity:1" fill="#6087a0" d="M 42.5,171.5 C 43.675,171.719 44.675,171.386 45.5,170.5C 46.5617,167.897 46.7284,165.23 46,162.5C 45.8019,164.382 45.3019,166.048 44.5,167.5C 44.3367,165.143 44.5034,162.81 45,160.5C 46.0113,159.663 47.1779,159.33 48.5,159.5C 48.2189,163.188 47.7189,166.855 47,170.5C 45.8756,173.842 44.3756,174.175 42.5,171.5 Z"/></g>
<g><path style="opacity:1" fill="#5c88a3" d="M 56.5,160.5 C 57.4013,161.29 58.0679,162.29 58.5,163.5C 57.8333,164.167 57.1667,164.833 56.5,165.5C 56.0269,164.094 55.0269,163.427 53.5,163.5C 54.9002,162.9 55.9002,161.9 56.5,160.5 Z"/></g>
<g><path style="opacity:0.569" fill="#6a93a8" d="M 63.5,158.5 C 64.2216,158.918 64.7216,159.584 65,160.5C 65.4974,163.146 65.6641,165.813 65.5,168.5C 64.4192,165.373 63.7526,162.04 63.5,158.5 Z"/></g>
<g><path style="opacity:0.047" fill="#afcbd6" d="M 136.5,161.5 C 136.5,161.833 136.5,162.167 136.5,162.5C 135.833,163.167 135.167,163.833 134.5,164.5C 134.285,162.821 134.952,161.821 136.5,161.5 Z"/></g>
<g><path style="opacity:1" fill="#457293" d="M 150.5,157.5 C 154.064,157.725 156.731,159.392 158.5,162.5C 158,162.833 157.5,163.167 157,163.5C 154.453,161.823 151.62,161.156 148.5,161.5C 148.5,163.833 148.5,166.167 148.5,168.5C 150.527,168.662 152.527,168.495 154.5,168C 153.552,167.517 152.552,167.351 151.5,167.5C 151.5,166.5 151.5,165.5 151.5,164.5C 156.486,164.305 158.152,166.472 156.5,171C 146.771,173.267 143.271,169.767 146,160.5C 147.409,159.219 148.909,158.219 150.5,157.5 Z"/></g>
<g><path style="opacity:1" fill="#497495" d="M 165.5,161.5 C 169.4,161.34 172.067,163.007 173.5,166.5C 173,166.833 172.5,167.167 172,167.5C 170.374,166.711 168.874,165.711 167.5,164.5C 167.167,164.833 166.833,165.167 166.5,165.5C 168.387,167.04 170.22,168.707 172,170.5C 172.711,172.367 172.211,173.867 170.5,175C 167.412,175.847 164.579,175.347 162,173.5C 161.396,168.876 162.562,168.376 165.5,172C 166.833,172.667 168.167,172.667 169.5,172C 166.28,170.734 163.947,168.567 162.5,165.5C 163.172,163.84 164.172,162.507 165.5,161.5 Z"/></g>
<g><path style="opacity:1" fill="#245b85" d="M 63.5,158.5 C 64.209,157.596 65.209,157.263 66.5,157.5C 66.1872,161.042 66.5206,164.375 67.5,167.5C 67.2893,169.424 66.6226,169.757 65.5,168.5C 65.6641,165.813 65.4974,163.146 65,160.5C 64.7216,159.584 64.2216,158.918 63.5,158.5 Z"/></g>
<g><path style="opacity:0.976" fill="#477793" d="M 127.5,154.5 C 129.252,154.418 130.252,155.251 130.5,157C 129.782,160.461 129.282,163.961 129,167.5C 126.875,168.851 125.708,168.185 125.5,165.5C 126.088,161.775 126.755,158.108 127.5,154.5 Z"/></g>
<g><path style="opacity:1" fill="#537a96" d="M 44.5,168.5 C 43.8106,169.774 42.9772,169.774 42,168.5C 41.5357,169.094 41.369,169.761 41.5,170.5C 39.8606,168.194 37.8606,166.194 35.5,164.5C 35.5,163.5 35.5,162.5 35.5,161.5C 36.552,161.351 37.552,161.517 38.5,162C 39.9984,164.664 41.9984,166.83 44.5,168.5 Z"/></g>
<g><path style="opacity:0.486" fill="#7798a6" d="M 58.5,163.5 C 59.9063,163.973 60.573,164.973 60.5,166.5C 59.0937,166.027 58.427,165.027 58.5,163.5 Z"/></g>
<g><path style="opacity:0.91" fill="#467594" d="M 95.5,158.5 C 98.4221,160.078 99.0888,162.412 97.5,165.5C 94.8971,166.562 92.2305,166.728 89.5,166C 88.0267,165.29 87.3601,164.124 87.5,162.5C 89.5824,162.472 91.4157,163.139 93,164.5C 93.7504,163.874 94.5838,163.374 95.5,163C 92.9901,161.91 90.4901,160.743 88,159.5C 87.5141,154.008 90.0141,152.175 95.5,154C 97.9815,155.804 97.9815,157.304 95.5,158.5 Z M 95.5,158.5 C 93.5714,158.769 91.9047,158.269 90.5,157C 92.6742,156.123 94.3409,156.623 95.5,158.5 Z"/></g>
<g><path style="opacity:0.757" fill="#5f89a2" d="M 135.5,156.5 C 133.676,158.996 132.676,161.996 132.5,165.5C 132.667,166.167 132.833,166.833 133,167.5C 133.232,166.263 133.732,165.263 134.5,164.5C 134.5,165.833 134.5,167.167 134.5,168.5C 133.5,168.5 132.5,168.5 131.5,168.5C 131.586,164.143 131.92,159.81 132.5,155.5C 133.791,155.263 134.791,155.596 135.5,156.5 Z"/></g>
<g><path style="opacity:0.835" fill="#7098a5" d="M 51.5,162.5 C 50.8885,165.696 50.8885,168.696 51.5,171.5C 51.44,172.043 51.1067,172.376 50.5,172.5C 49.3199,168.94 49.6532,165.607 51.5,162.5 Z"/></g>
<g><path style="opacity:1" fill="#628a9f" d="M 53.5,165.5 C 54.5,165.5 55.5,165.5 56.5,165.5C 57.6883,166.364 58.8549,167.364 60,168.5C 60.4643,167.906 60.631,167.239 60.5,166.5C 62.1042,167.287 62.7709,168.62 62.5,170.5C 60.0968,170.607 58.2635,169.607 57,167.5C 55.9887,168.337 54.8221,168.67 53.5,168.5C 53.9175,167.778 54.5842,167.278 55.5,167C 54.5842,166.722 53.9175,166.222 53.5,165.5 Z"/></g>
<g><path style="opacity:1" fill="#035182" d="M 58.5,163.5 C 58.427,165.027 59.0937,166.027 60.5,166.5C 60.631,167.239 60.4643,167.906 60,168.5C 58.8549,167.364 57.6883,166.364 56.5,165.5C 57.1667,164.833 57.8333,164.167 58.5,163.5 Z"/></g>
<g><path style="opacity:0.733" fill="#678ca0" d="M 73.5,155.5 C 73.6458,159.519 73.9791,163.519 74.5,167.5C 77.1656,167.067 79.8323,166.567 82.5,166C 81.2625,165.768 80.2625,165.268 79.5,164.5C 81.6648,164.116 83.3315,164.783 84.5,166.5C 80.9285,167.706 77.2618,168.373 73.5,168.5C 72.3376,164.02 72.3376,159.687 73.5,155.5 Z"/></g>
<g><path style="opacity:1" fill="#27638c" d="M 135.5,156.5 C 137.474,158.428 138.974,160.761 140,163.5C 140.49,162.207 140.657,160.873 140.5,159.5C 141.222,159.082 141.722,158.416 142,157.5C 142.61,161.236 142.277,164.903 141,168.5C 140.329,167.748 139.496,167.414 138.5,167.5C 137.463,166.07 136.796,164.403 136.5,162.5C 136.5,162.167 136.5,161.833 136.5,161.5C 135.699,159.958 135.366,158.292 135.5,156.5 Z"/></g>
<g><path style="opacity:1" fill="#216090" d="M 56.5,160.5 C 55.9002,161.9 54.9002,162.9 53.5,163.5C 53.5,164.167 53.5,164.833 53.5,165.5C 53.9175,166.222 54.5842,166.722 55.5,167C 54.5842,167.278 53.9175,167.778 53.5,168.5C 52.8333,169.5 52.1667,170.5 51.5,171.5C 50.8885,168.696 50.8885,165.696 51.5,162.5C 51.5,162.167 51.5,161.833 51.5,161.5C 52.8149,159.401 54.4816,159.067 56.5,160.5 Z"/></g>
<g><path style="opacity:0.922" fill="#6d93a9" d="M 138.5,167.5 C 139.496,167.414 140.329,167.748 141,168.5C 142.277,164.903 142.61,161.236 142,157.5C 141.722,158.416 141.222,159.082 140.5,159.5C 140.5,158.5 140.5,157.5 140.5,156.5C 141.5,156.5 142.5,156.5 143.5,156.5C 143.533,160.869 143.2,165.202 142.5,169.5C 140.62,169.771 139.287,169.104 138.5,167.5 Z"/></g>
<g><path style="opacity:1" fill="#4b7696" d="M 35.5,164.5 C 36.0078,168.197 36.6745,171.864 37.5,175.5C 36.325,175.719 35.325,175.386 34.5,174.5C 33.2689,171.41 32.2689,168.243 31.5,165C 32.5788,161.948 33.9122,161.782 35.5,164.5 Z"/></g>
<g><path style="opacity:1" fill="#105a86" d="M 42.5,171.5 C 41.8333,171.5 41.5,171.167 41.5,170.5C 41.369,169.761 41.5357,169.094 42,168.5C 42.9772,169.774 43.8106,169.774 44.5,168.5C 44.5,168.167 44.5,167.833 44.5,167.5C 45.3019,166.048 45.8019,164.382 46,162.5C 46.7284,165.23 46.5617,167.897 45.5,170.5C 44.675,171.386 43.675,171.719 42.5,171.5 Z"/></g>
<g><path style="opacity:1" fill="#4e7998" d="M 22.5,165.5 C 24.8568,165.337 27.1902,165.503 29.5,166C 30.767,167.796 30.767,169.629 29.5,171.5C 30.8333,172.833 32.1667,174.167 33.5,175.5C 32.8333,175.833 32.1667,176.167 31.5,176.5C 29.429,175.382 27.2623,174.382 25,173.5C 24.5,173.833 24,174.167 23.5,174.5C 24.3094,176.071 24.6427,177.738 24.5,179.5C 23.325,179.719 22.325,179.386 21.5,178.5C 19.7125,174.989 18.8792,171.322 19,167.5C 20.3024,166.915 21.469,166.249 22.5,165.5 Z M 22.5,168.5 C 28.6412,168.101 28.9746,169.101 23.5,171.5C 22.6143,170.675 22.281,169.675 22.5,168.5 Z"/></g>
<g><path style="opacity:1" fill="#407093" d="M 184.5,168.5 C 184.5,170.167 184.5,171.833 184.5,173.5C 182.44,174.811 180.274,174.811 178,173.5C 176.812,174.563 176.312,175.897 176.5,177.5C 175.5,177.5 174.5,177.5 173.5,177.5C 173.583,173.42 174.583,169.587 176.5,166C 179.817,165.023 182.484,165.856 184.5,168.5 Z M 178.5,168.5 C 183.639,169.941 183.639,170.941 178.5,171.5C 178.5,170.5 178.5,169.5 178.5,168.5 Z"/></g>
<g><path style="opacity:0.808" fill="#7998ad" d="M 184.5,168.5 C 187.167,170.167 187.167,171.833 184.5,173.5C 184.5,171.833 184.5,170.167 184.5,168.5 Z"/></g>
<g><path style="opacity:0.941" fill="#49779a" d="M 186.5,179.5 C 185.761,179.631 185.094,179.464 184.5,179C 186.041,177.629 187.375,176.129 188.5,174.5C 189.689,171.153 191.855,170.153 195,171.5C 195.499,175.821 195.666,180.154 195.5,184.5C 194.167,184.5 192.833,184.5 191.5,184.5C 191.838,180.849 190.172,179.183 186.5,179.5 Z M 190.5,174.5 C 191.776,175.386 191.776,176.386 190.5,177.5C 189.438,176.575 189.438,175.575 190.5,174.5 Z"/></g>
<g><path style="opacity:1" fill="#457393" d="M 11.5,169.5 C 14.8641,168.873 16.8641,170.206 17.5,173.5C 16.3942,176.441 14.3942,178.608 11.5,180C 12.3366,181.011 12.67,182.178 12.5,183.5C 11.325,183.719 10.325,183.386 9.5,182.5C 8.16667,179.167 6.83333,175.833 5.5,172.5C 7.5939,171.482 9.5939,170.482 11.5,169.5 Z M 11.5,172.5 C 15.2707,173.676 15.104,175.01 11,176.5C 10.6258,175.584 10.1258,174.75 9.5,174C 10.4158,173.722 11.0825,173.222 11.5,172.5 Z"/></g>
<g><path style="opacity:1" fill="#6791a1" d="M 188.5,174.5 C 187.375,176.129 186.041,177.629 184.5,179C 185.094,179.464 185.761,179.631 186.5,179.5C 185.206,182.14 183.873,182.14 182.5,179.5C 183.931,177.062 185.931,175.396 188.5,174.5 Z"/></g>
</svg>
